/* XPM */
static char *_73aabf2bc0a4b2d8f18881f073a3ed16pzlX4Ppa2TYm4Yp[] = {
/* columns rows colors chars-per-pixel */
"64 64 252 2 ",
"   c #AC6F70",
".  c #B07758",
"X  c #BD8E37",
"o  c #BEA32A",
"O  c #C79839",
"+  c #C8982D",
"@  c #CAA739",
"#  c #D2AC39",
"$  c #FADC3C",
"%  c #F9DA39",
"&  c #EDC13C",
"*  c #F9E13A",
"=  c #BA8375",
"-  c #BA864A",
";  c #CB9855",
":  c #D4AA48",
">  c #CEB449",
",  c #D7B649",
"<  c #D4AA59",
"1  c #DBB957",
"2  c #CBAB4A",
"3  c #E5B655",
"4  c #F6B759",
"5  c #E7B44A",
"6  c #CA9666",
"7  c #C59073",
"8  c #D5A667",
"9  c #DAA97C",
"0  c #EBBA68",
"q  c #F7BB68",
"w  c #E8B875",
"e  c #FCBB73",
"r  c #FCBD7B",
"t  c #F5BB78",
"y  c #D7C857",
"u  c #D7C951",
"i  c #E9C748",
"p  c #FADC44",
"a  c #FBDC4C",
"s  c #F7D74A",
"d  c #E8C859",
"f  c #F9CA5A",
"g  c #EAD558",
"h  c #FCD454",
"j  c #FBDD55",
"k  c #FDD35B",
"l  c #F5D95A",
"z  c #F0CF4B",
"x  c #FBE245",
"c  c #FBE44B",
"v  c #FAEA4C",
"b  c #FBE453",
"n  c #FBEA55",
"m  c #FBEC5D",
"M  c #F8E459",
"N  c #DECC61",
"B  c #E5CC63",
"V  c #E9C867",
"C  c #F7C96A",
"Z  c #EBD36B",
"A  c #EBD767",
"S  c #F5D463",
"D  c #FBDB62",
"F  c #F4D36C",
"G  c #F4DB6B",
"H  c #FBDC6D",
"J  c #F9D666",
"K  c #ECC976",
"L  c #FBC37B",
"P  c #F6C878",
"I  c #EBD875",
"U  c #F6DC72",
"Y  c #FBDC74",
"T  c #F4D37C",
"R  c #FBD67C",
"E  c #F5DB7B",
"W  c #FBDB7C",
"Q  c #F7D673",
"!  c #FBE364",
"~  c #FDED63",
"^  c #FCEC6C",
"/  c #F7E46A",
"(  c #FCF16C",
")  c #FDF262",
"_  c #F5E373",
"`  c #FBE375",
"'  c #FBEB75",
"]  c #FCE47B",
"[  c #FCEC7C",
"{  c #F5E877",
"}  c #FDF37C",
"|  c #FCFA7D",
" . c #FBF575",
".. c #ECE66F",
"X. c #7D31BB",
"o. c #6E22C0",
"O. c #7326C3",
"+. c #7629C3",
"@. c #7B2DC5",
"#. c #7C2CC9",
"$. c #7E31C5",
"%. c #7E33CA",
"&. c #7527DE",
"*. c #7B2BDD",
"=. c #7A29D6",
"-. c #7C2BE2",
";. c #7828E2",
":. c #883CBB",
">. c #903EBA",
",. c #99569A",
"<. c #944D97",
"1. c #A15D92",
"2. c #A76887",
"3. c #A9669A",
"4. c #B87997",
"5. c #B0758D",
"6. c #944DA6",
"7. c #9958A7",
"8. c #8B45BA",
"9. c #934BB7",
"0. c #9B55B8",
"q. c #8E48AD",
"w. c #A25AAE",
"e. c #9C63B4",
"r. c #AA69A5",
"t. c #B875A6",
"y. c #A566B6",
"u. c #B272AF",
"i. c #9D6082",
"p. c #C077A5",
"a. c #8235C5",
"s. c #853BC5",
"d. c #8B3DC4",
"f. c #8235CB",
"g. c #863ACA",
"h. c #8A3DCC",
"j. c #8B35CA",
"k. c #812EDE",
"l. c #8333D5",
"z. c #863BD4",
"x. c #8B3CD4",
"c. c #8534DC",
"v. c #8936DD",
"b. c #8C3BDC",
"n. c #913ED8",
"m. c #8836CA",
"M. c #812EE1",
"N. c #8633E3",
"B. c #8936E3",
"V. c #8C3AE3",
"C. c #8E3CEA",
"Z. c #8835E9",
"A. c #913EE4",
"S. c #913CEA",
"D. c #943CF0",
"F. c #8B43C4",
"G. c #8B43CB",
"H. c #8D48C6",
"J. c #934AC4",
"K. c #924BCC",
"L. c #9447C8",
"P. c #9954C4",
"I. c #8E43D3",
"U. c #8E42DB",
"Y. c #8B48D6",
"T. c #934BD3",
"R. c #9245DA",
"E. c #9549DB",
"W. c #9448D5",
"Q. c #9242E3",
"!. c #9445E8",
"~. c #9043EB",
"^. c #A66AC2",
"/. c #B98490",
"(. c #B983AB",
"). c #CC938F",
"_. c #D8A388",
"`. c #D7AE8E",
"'. c #F9BB84",
"]. c #E8B48D",
"[. c #C388A8",
"{. c #C896B0",
"}. c #D7A9A4",
"|. c #DBBEAC",
" X c #E5B9AF",
".X c #F6C482",
"XX c #FCC483",
"oX c #F4CC84",
"OX c #FAC68A",
"+X c #F5D583",
"@X c #FAD683",
"#X c #F5DC83",
"$X c #FBDB84",
"%X c #F5DC8B",
"&X c #FCDB8B",
"*X c #F6D48B",
"=X c #F9CB96",
"-X c #F4DC92",
";X c #FBDB93",
":X c #F5DC9A",
">X c #FADC9B",
",X c #F7D497",
"<X c #EDD091",
"1X c #F5E384",
"2X c #FCE483",
"3X c #FCEC82",
"4X c #FCE48C",
"5X c #FBEB8C",
"6X c #F5E48B",
"7X c #FCF483",
"8X c #FCFA84",
"9X c #FDF58B",
"0X c #FDFB8B",
"qX c #F5F786",
"wX c #FCE292",
"eX c #FCEB94",
"rX c #FBE39C",
"tX c #FDEC9C",
"yX c #F6E597",
"uX c #FDF394",
"iX c #FDFA95",
"pX c #FDF29C",
"aX c #FDFB9B",
"sX c #F7F096",
"dX c #EDE68B",
"fX c #F3CCA2",
"gX c #F7DCA6",
"hX c #F0D3B0",
"jX c #FAE3A5",
"kX c #FCECA4",
"lX c #F9E3AB",
"zX c #FCECAC",
"xX c #F5E5A7",
"cX c #FDF4A4",
"vX c #FDF3AC",
"bX c #FEF9AC",
"nX c #FCFAA3",
"mX c #FCEEB3",
"MX c #FBE9B9",
"NX c #FDF5B3",
"BX c #FEF9B3",
"VX c #FDF3BB",
"CX c #FEFABB",
"ZX c #F7F6B7",
"AX c #FAEEC1",
"SX c #FBF6C5",
"DX c #FCF6D6",
"FX c #FBEDD2",
"GX c #FCFBE2",
"HX c #FBFDED",
"JX c #FBF7E3",
"KX c #FBFDF7",
/* pixels */
";.&.;.;.;.&.;.-.&.-.-.-.Z.N.N.Z.c.Z.Z.v.b.B.V.V.R.b.b.b.b.b.U.I.x.x.x.I.z.U.!.A.C.S.A.b.v.V.V.B.v.V.V.N.B.N.-.N.M.M.-.-.-.;.;.;.",
"&.&.;.;.;.;.-.-.-.-.*.c.v.v.c.v.V.Z.Z.B.V.V.V.V.I.K.P.w.r.t.[.[.{.[.[.(.u.^.P.K.U.Q.C.C.v.A.A.B.C.N.N.Z.B.v.N.N.N.M.M.-.-.;.;.;.",
"&.&.;.;.;.;.-.-.-.-.c.B.V.Z.Z.V.Z.B.V.C.V.G.9.7.4.).9 V G ` %X,X%X%X&X&XrXgXhX|.{.u.9.I.V.V.C.D.B.C.S.V.v.B.N.c.N.N.M.-.-.-.-.-.",
"&.&.;.;.;.-.-.M.l.N.N.B.Z.Z.Z.V.~.V.b.n.0.5.8 V f G ] 5XkXVXDXDXFXAX:X+X3X0XiXaXuXkXhX{.y.H.U.Q.!.Q.z.v.C.B.k.v.B.N.N.M.-.-.-.-.",
"&.&.;.;.-.-.M.M.l.B.Z.v.v.V.V.b.B.G.0.t._.K G _ sXNXDXHXKXKXHXJXKXGXMX-X5X8X8XqX8XqX9XpXhX{.y.9.G.b.A.C.V.V.V.B.B.N.N.N.M.-.-.-.",
"&.&.&.-.-.M.M.M.c.Z.Z.v.V.C.B.z.0.t._.K T :XAXGXKXKXHXGXGXGXGXJXDXFXlX-X4X9X8XiXqX0X0X} 3X>X X{.0.G.~.~.c.x.Q.N.B.B.N.N.N.N.M.-.",
"&.&.*.-.M.M.N.N.c.Z.B.v.v.c.J.r._.].*XjXFXKXKXGXDXSXNXsX5X1X#X#X-X;X&X#X] 8X8X8X| 7X9X9X3X4X;XfX Xu.9.I.b.x.V.C.V.V.B.N.N.N.M.M.",
"*.&.*.k.k.k.N.B.B.B.v.z.h.9.[.P F >XFXHXKXKXDXxX_ G l g z i , > , 1 1 1 B { 9X9X0X0X9X5X#X%X&X$X,XhX{.9.I.!.v.x.V.V.B.N.N.N.N.M.",
"-.&.*.M.N.N.c.B.V.z.b.d.,._.E ` zXDXHXHXDXMXT g i , # @ @ : 3 3 V 0 V 3 1 1 y y I 3X5X%X&X&X&XE @XU %X}.0.b.~.V.n.B.C.N.Z.B.l.N.",
"&.*.k.c.N.v.v.V.b.b.h.3.`.] eXVXHXJXDXAX-XK 3 O + # 5 f S Y W R R @X$X$XW E I I B B K T &X&X$X$X%X] ' %X}.y.I.!.A.Q.A.V.c.B.Z.c.",
"*.*.c.c.l.v.v.B.b.F.3.w / 9XSXHXKXDXlXT 1 @ @ 3 V S H H H Y W @X@X$X*X*X$X$X$X@X@X#XT K K P $X&X#X3X^ ( ] `.y.U.!.E.z.Q.v.B.Z.l.",
"*.k.v.l.l.v.V.v.d.3.w ^ eXDXKXHXAXrXS : O > d J Y Y H H H Y W W Y R +X+X@X$X&X&X&X&X$X@XP K T &X2X7X[ [ ^ Y }.P.U.E.b.C.Q.b.c.B.",
"k.k.N.c.v.V.x.d.1.`.{ qXDXKXHXAX2Xd # @ N E ` ` Y Y Y Y Y S d d f J W $X$X$X&X&X&X&X&X&X&X+X+X+X4X[ [ 3X` ^ &X}.0.R.!.C.b.b.b.B.",
"c.N.v.v.B.v.:.<.6 R 9XZXHXDXcX1Xd o @ Z _ ` ] Q H Y Y Q F d d d d d F Q W @X#X%X&XwX&X#X$X4X&X+XE 1X3X[ / ! Y P [.J.~.E.R.V.A.v.",
"N.N.v.v.v.h.<.  w T yXDXDXpX' g o , I ] ` ` Y W H Y Y H V V Z Z Q F S F W &X&X4X$X#X&X&X&X$X$X&XW 5X5X[ ^ ! H Q ].r.G.E.E.C.C.v.",
"N.B.c.z.b.F.2.8 L oX,XMXxX' l o # Y 5X` ] 2XU _ Y Y H S B E eXtXkX4XU Y $X&X&X@X$X&X&X&X&X&X&X&X;X$X] [ ` Y H F oX}.0.n.A.A.V.b.",
"l.c.B.v.b.<.; L <X:X*XoXP f @ 2 ` ] ] ] ] ] ` Y H Y Q B I kXmXmXmXzXwXE R ;X&XR &X&X&X&X&X;X;X;X;X;X;X4X#XQ P L P .X4.L.I.E.V.b.",
"l.v.v.x.q.  < R MXFXgXoXP @ @ I [ [ [ ] ] ` ` Y Y Y Q B 6XvXVXmXzXzXtX1X#X&X&X$X&X$X$X$X&X&X&X&X;X;X&X&X+XT P L P P }.y.I.U.R.n.",
"l.v.z.n.1.; K lXHXHXhXoX1 o d 9X3X3X[ ] ] ` Y Y H Y F I tXNXAXVXvXNXvXyX1X+X#X$X&X&X&X&X&X;X;X;X;X;X;X;X;X+X.XXXL P '.[.L.U.R.V.",
"z.v.v.8.).V kXDXKXDX<XK O y } 7X7X7X3X] ] ] ` ` H Y Z 6XvXVXVXSXNXBXNXkX6X#X#X$X$X$X&X&X&X&X&X&X-X;X;X;X>X,X.XL L P C ].0.Q.R.b.",
"c.v.b.,.8 ` BXGXKXVXK : 2 _ } qX9X7X3X] ` ` ` _ Y U Z tXBXVXVXSXBXVXVXmXtX4X$X$X&X&X&X&X;X;X;X;X;X;X;X,X>X;X*XL P P f P t.R.Q.R.",
"l.b.L.5.B eXSXHXDXuXl O d } 8X7X7X7X[ ] ` ` ` _ Y Z I vXCXSXVXVXVXNXVXVXzXwX#X+X+X+X+X+X+X+X+X+X+X&X&X;X>X>X*XP C P k k _.8.Q.R.",
"z.x.w.7 Z vXDXGXbX7Xd @ _ 8X0X} 7X7X[ ] ] ` ` U Q Z 6XBXSXCXCXVXVXBXBXVXVXkX6X+XB B B B B d d d Z F R &X>X>X*XT S J k h w 7.b.R.",
"b.j.3.8 ..aXSXNXqX} > 1 | 8XqX7X} } [ ` U G A B V B pXBXSXZXCXVXSXBXZXAXAXzXtX5XwXwX;X&X&X@XR R d d Q &X>X:X;X&XJ j k h C 4.I.R.",
"S.>.= 1 3X0X0X| 8XG @ G 0X7X0X[ _ A A d g N I dXsXpXbXBXZXCXCXCXCXCXBXNXNXNXzXzXzXzXzXjXjXrXrXrX@Xl S #X;X;X;X1XA J k k S ).L.U.",
"S.9.7 B 7X8X0X8X| g @ [ 0X9X{ B N Z E 6XeXpXcXBXvXBXCXCXCXCXCXCXCXCXBXNXNXNXvXmXzXzXzXzXjXjXrX>X-XJ J E 4X;X>XyXZ J k h h 9 0.Q.",
"v.6.6 B 7X7X0X9X| u > 8X8X7XA y / 3XpXvXNXBXBXVXVXCXCXCXZXCXCXCXCXBXBXBXNXNXNXNXvXmXzXzXzXjXjXgX:XW H ] 4X;X>XxXE J h h a w w.Q.",
"x.1.8 F 3X9XuX9X[ > y 8X8X{ g l / 3XtXkXzXvXNXBXVXCXCXCXZXBXCXCXBXBXBXBXBXBXBXBXNXNXNXmXzXzXjXjXjX4XW 2XwX;X>XjX$XC k k s 0 3.U.",
"n.2.; V 2X1X4X$XT 2 G 8X0X^ z b ] 5XtXkXkXtXkXvXNXNXbXbXBXBXCXCXBXBXBXBXBXBXBXBXvXNXvXvXvXzXkXkXtXwX&XwX>X;X>XjX+XC C C f e 3.E.",
"h.  O 0 oXT oXP K 2 _ qX0X' z p $X&XrXtXtXtXtXzXcXcXcXcXbXBXBXBXbXBXBXBXBXbXbXBXbXbXvXvXvXvXkXkXeXwX&X;X>X;X;XjX*Xt e e q t t.E.",
"d.  O 0 OXoXOXXXP : _ qX0X} ! s ` 2XwXwXwXwXrXtXtXpXcXcXcXbXbXbXbXbXBXBXbXbXbXbXbXbXbXvXcXcXcXpX6X;X&X;X>X;X;XgX=X'.e e e '.t.T.",
"d.  O w =X.XOXXXq : [ 0XqX9X' s l / 2X%X4XeXeXeXyXtXtXtXcXcXnXaXbXbXBXBXbXbXbXbXbXbXbXbXnXnXpXuX6X;X&X&X>X&X;XgX,X'.e q q '.t.K.",
"d.  + q OX.X=XXXq : { 0X8X0X}  .M l H W $X$X4XwX5X5XeXeXeXuXuXuXsXpXaXnXaXnXnXnXaXnXnXaXiXiX5X6X;X;X%X;XgX>X-XgX=Xt q r q ].u.J.",
"d.  + 0 oXT oXP C > { 8X8X0X9X} [ D l S Y 2X2X2X5X5X4X5X5X5X5X9XuXuXiXiXiXiXiXiXiXiXiXiXiX9X4X%X;X;X&X;XgX>X-XxX=X0 q e 4 w u.K.",
"g.2.2 Z 1X1X1X] Y > ..8X0X9X0X} 9X' ! l S G U _ ] ] ] 2X2X3X3X3X3X7X9X9X9X9X0X0X8X0X0X0X9X5X#X&X;X;X&X;X>X>X:XlX*XC f C f w r.T.",
"h.2.< G 9X0X9X7X[ u ..0X0X9X9X9X7X7X[ ! l l l H H H Y Y ` ` ` ' { ' ' } } } } } | 8X8X8X9X1X%X;X;X&X&X;X>X>X:XxXE S k k h 0 r.E.",
"h.3.< g 9X8X0X0X| y N 0X0X9X7X9X7X3X3X` / D l j D l D D D ! ! ! / / ^ ^ ^ (  . .| | 8X8X7X1X&X>X;X&X;X>X;X>XjXjXU l h k h w 7.E.",
"h.7.8 d 7X7X0X8X| A y 8X8X7X7X9X9X3X] ] ] H l p j j j j j j j j M M m m ~ ~ ~ ^ (  . .| 9X5X&X;X;X&X;X>X;X>XlXjXS l h k k _.0.E.",
"v.9.7 1 [ 8X8X8X ...u { 0X7X9X7X7X7X[ ] ] G z a j j a a a a a a a b b b n n m ~ ~ ( (  .} 3X%X&X&X&X>X>X&XgXlXyXS J k k C ).L.E.",
"B.9.7 : _ 8X8X8X .} y ..0XqX0X3X} 3X[ ] ` l z j a a a a p p a a p p c c c v n n ~ ~ ~ (  .[ 2X&X&X&X>X;X&XgXlXyXk J k k C 4.I.T.",
"V.h.5.< g 9X9X|  . .A N 8X8X9X9X7X7X{ ] ] A l c b c x p p p p $ p p $ $ x c b M ! m m m ^ ] 2X$X$X;X:X;X;XgXlXoXJ k k a w 0.!.I.",
"h.h.7.8 u [ 0XqX7X[ Z y { 7X9X9X7X} [ ] ] A l b b c x x p p p $ % $ $ p p x x x b n n m ~ ^ ] $X$X&X;X-X:XlX,XP C C k J ).0.I.I.",
"g.x.J.)., _ 0XqX2XR K 3 Z 7X7X7X9X7X[ ] ` A ! m M M c c c x p $ $ % $ $ $ $ * * x c b n n m ` W #X&X;X:XlXgX.Xt q t f t r.K.G.Y.",
"x.v.I.2.< d 2XE P XXL P V 3X7X7X7X[ [ ] ` A ^ ~ ~ m n n v c x p a p $ $ % % p p $ p j b v n / $X%X&X;XjXMXfXOXr q t C _.0.E.R.I.",
"z.N.x.<.6 @ 0 P '.OX'.L 0 F [ 7X7X[ 3X] _ A  . .( ~ m n n n b b D j j a p p $ p $ p a x x c ! ] ;X;X-XlXgX].'.r r t t t.W.E.E.Y.",
"f.N.x.q.  X < r OX'.r L C d _ 7X7X[ ] 3X_ G }  . .( ^ ~ m m ~ ! Y Y Y H D j p $ $ $ $ % * c ! ` ;X<XxXxX<X'.t r '.t _.P.!.T.E.U.",
"f.z.z.d.,.. O 0 XXL P C C d G [ } [ 3X] ` / 7X7X| } }  .( ^ ` ` W W $X$X$XY D j j a $ $ p j Y $XwXxXmXyXE P t r '.].t.T.E.T.I.I.",
"l.s.f.z.8.  X : P P P C J ` A / } [ 3X] ] _ 9X9X8X9X7X} ' ' ] E U U @X&X&X&X$X$XH k a p j H $X;X6XVXmX5X^ U P e t _.0.T.K.U.R.F.",
"c.l.g.h.h.q.. + , P $X_ ) m M M ..} ] ] ` _ } 8X9X9X7X[ _ U E W W $X$X$XW W @X&X&X$XW Y E 1XyXjXMXvX4X] ' ! / Y ].y.T.T.Y.U.G.G.",
"z.l.l.h.h.8.i.- : S ! ( m n ) M M ^ ' ] ] _ ' 7X[ [ ' ` Y Y W R R @X$X$X$X$X&X;X%X$X$X$X#XyXxXmXkX5X3X2X` ^ H oX/.0.T.K.G.Y.G.x.",
"f.l.l.z.d.h.9.2.8 d n ) ^ ~ M M b n ! ` 2X` ` W / G U R R @XR R T @X@XR @X$X&X;X%X%X&X;XrXxXxXxXeX7X[ 3X/ ! ,X).0.G.T.J.G.G.h.x.",
"l.a.f.c.g.g.h.9./.< i M [ ~ n n v c g F R W W $XY Y W R R R R R @XR R W W $X$X&X;X:XgXxXlXlX,X<X4X2X} ' ^ #X{.P.K.R.T.G.G.G.d.z.",
"#.a.f.l.s.h.z.F.<.= , d G n v n c s i 4 q C Q $X$XW Y H G H Y R R R R W @X+X%X-XgXlXlXgXgX,XOXL +X2X' ^ 5X}.7.E.W.I.K.G.h.d.s.h.",
"#.f.z.f.:.x.b.d.>.,.7 : i M b v j z 4 4 q q 0 V Q W W @X#X#X@X@X#X#X#X%X:XgXxXxXvXzXjX,XOXXXXXL P 4X3X%X}.y.J.K.T.G.G.G.x.g.s.g.",
"#.f.f.f.g.x.z.d.d.:.,.= < d l b h 4 q 4 4 q 3 5 l D Y 2X4XwXwX;X:XyXyXrXxXzXvXnXiXaXyX*X.XXXXXXXOXoXfX{.7.J.F.J.K.G.G.G.d.g.g.a.",
"#.@.$.l.l.f.s.x.z.d.F.6.5.< # f f q q 4 4 4 4 f p p x v ! _ %X<XfXgX:X,X>XpXiX8X8X0X9X1XT XXOXOX=X].(.7.J.T.K.Y.F.G.x.d.:.s.g.a.",
"#.#.#.#.f.f.g.f.g.F.F.G.9.2.; # : 5 q q 4 3 i a % p x x v b C e P t r L #XuXiX0X0XqX0X7XE oX=XfX{.r.9.T.W.I.T.G.G.G.d.g.g.g.f.a.",
"#.#.@.@.f.f.f.f.c.g.d.F.h.J.1.. X O : 4 4 4 z % $ p a b b M C r OX'.'..X%XiX0X8X0X8X0X8X2X=X}.t.7.9.K.T.G.F.H.F.G.G.d.s.g.g.a.@.",
"O.+.@.@.@.$.$.f.a.g.d.F.h.g.8.6.  . X O # & % % * * p c v M C e t r '..X#X0X8X| 0X7X0XtX X(.y.J.K.T.W.T.F.F.F.d.d.g.s.a.a.a.$.@.",
"O.O.+.+.@.@.$.%.:.a.g.h.d.8.8.I.8.<.2.. ; 5 i z % $ p x c M J q t r L P $XuXaXiXpX:X`./.e.J.K.G.T.I.G.G.F.F.g.z.g.g.a.a.$.@.@.@.",
"O.O.O.+.+.@.@.$.f.a.g.f.f.s.F.h.G.G.8.6.2.  6 < , d z s a j J q XXr t P +X;X<X].).3.7.P.P.J.H.K.F.F.F.F.G.s.%.z.g.f.a.$.@.@.@.+.",
"O.O.O.O.+.+.@.@.@.%.f.$.a.g.g.:.d.h.I.G.H.9.,.i.  = 7 6 < 8 8 6 ; ; 6 7 )./.3.7.6.9.K.I.H.K.G.I.F.F.G.G.G.d.s.a.a.a.$.@.@.+.+.+.",
"o.o.O.O.O.+.+.@.X.@.%.$.a.s.g.d.d.d.F.F.G.G.G.J.8.9.6.7.,.1.,.,.7.,.7.6.6.9.8.H.H.H.H.K.T.I.G.I.F.d.s.s.f.g.s.X.a.$.@.@.@.+.+.+.",
"o.o.o.O.O.+.+.+.=.@.$.%.%.$.a.f.m.d.d.x.F.8.8.G.K.G.G.H.J.F.8.H.9.8.J.F.K.K.G.H.H.H.G.G.G.F.8.8.G.d.s.d.s.%.$.$.@.@.@.@.+.+.+.+."
};
