/* XPM */
static char *_65de85607d14cfbbb09622a36e2bd4bSYfdJNeWhS1CbTzN[] = {
/* columns rows colors chars-per-pixel */
"64 64 256 2 ",
"   c #000000",
".  c #090002",
"X  c #01040A",
"o  c #010A0D",
"O  c #060706",
"+  c #00110B",
"@  c #001307",
"#  c #020C12",
"$  c #060B15",
"%  c #011314",
"&  c #01141B",
"*  c #021A1D",
"=  c #011C23",
"-  c #031E29",
";  c #071A21",
":  c #061528",
">  c #022325",
",  c #02242C",
"<  c #022A2D",
"1  c #032532",
"2  c #022B34",
"3  c #022D3B",
"4  c #0A2C36",
"5  c #02323C",
"6  c #07333B",
"7  c #112D38",
"8  c #072E41",
"9  c #023443",
"0  c #093443",
"q  c #033A45",
"w  c #093A44",
"e  c #053649",
"r  c #023B4C",
"t  c #0A3C4B",
"y  c #123746",
"u  c #023D52",
"i  c #0A3D54",
"p  c #083B5A",
"a  c #103F53",
"s  c #033F61",
"d  c #06434D",
"f  c #044455",
"g  c #03445B",
"h  c #0B455D",
"j  c #04495C",
"k  c #0A4A5B",
"l  c #084655",
"z  c #124554",
"x  c #064462",
"c  c #054C64",
"v  c #0B4B65",
"b  c #044C6B",
"n  c #0B4D6B",
"m  c #0A4668",
"M  c #05526A",
"N  c #0A526C",
"B  c #095467",
"V  c #0A4D73",
"C  c #084C73",
"Z  c #045373",
"A  c #0B5474",
"S  c #0B5974",
"D  c #05537A",
"F  c #0A547C",
"G  c #0B5B7B",
"H  c #065A78",
"J  c #115779",
"K  c #14586A",
"L  c #0C5484",
"P  c #0B5C83",
"I  c #0D5B8D",
"U  c #09588A",
"Y  c #135D83",
"T  c #11598A",
"R  c #0D5D93",
"E  c #0C5B99",
"W  c #115A94",
"Q  c #034F83",
"!  c #0C6184",
"~  c #0D628B",
"^  c #08678B",
"/  c #116488",
"(  c #0D6295",
")  c #0D629B",
"_  c #0B6D9C",
"`  c #086C94",
"'  c #126B9A",
"]  c #136497",
"[  c #0C749A",
"{  c #135CA7",
"}  c #0F5EAC",
"|  c #0D64A3",
" . c #0D68AA",
".. c #1264A4",
"X. c #1363AC",
"o. c #136BAA",
"O. c #126CA3",
"+. c #0D7BA6",
"@. c #1477AC",
"#. c #0E65B7",
"$. c #1464B2",
"%. c #1266BA",
"&. c #146ABC",
"*. c #176CB8",
"=. c #1578B9",
"-. c #0E75B5",
";. c #146CC3",
":. c #1B6CCC",
">. c #1769C5",
",. c #1774C6",
"<. c #196BD5",
"1. c #156DCE",
"2. c #257ACB",
"3. c #2578C9",
"4. c #216DD3",
"5. c #2577D6",
"6. c #2A74CF",
"7. c #1B8CBB",
"8. c #1689B5",
"9. c #1893BC",
"0. c #1083B4",
"q. c #2591BA",
"w. c #2BA3BF",
"e. c #4D9DBE",
"r. c #1688C5",
"t. c #1D9CC4",
"y. c #1894C7",
"u. c #1C99D4",
"i. c #2786CB",
"p. c #3389CB",
"a. c #3487CB",
"s. c #289AC7",
"d. c #3B94C8",
"f. c #2A83D7",
"g. c #398AD2",
"h. c #3597D3",
"j. c #1CA4CF",
"k. c #27A7CA",
"l. c #3BA7C8",
"z. c #36ACD1",
"x. c #1999E0",
"c. c #2A8DE0",
"v. c #4599C8",
"b. c #4899D4",
"n. c #428CD7",
"m. c #47A7CA",
"M. c #54ABCB",
"N. c #57A7CA",
"B. c #5CB3CC",
"V. c #49A5D4",
"C. c #56A9D5",
"Z. c #47B6D3",
"A. c #58B5D5",
"S. c #45B1CE",
"D. c #66B2CB",
"F. c #63B3D4",
"G. c #68B9D8",
"H. c #76BBD5",
"J. c #67B2D4",
"K. c #6ABCE5",
"L. c #78BEE2",
"P. c #77C3DA",
"I. c #6CC1D5",
"U. c #6CC3E9",
"Y. c #79C4E7",
"T. c #7ACCEF",
"R. c #86C8DA",
"E. c #95CADA",
"W. c #9AD1DA",
"Q. c #8FD2DA",
"!. c #A5D4DC",
"~. c #84CBE1",
"^. c #88CBE7",
"/. c #97CCE3",
"(. c #8CD2ED",
"). c #9BD5EC",
"_. c #9BD9EA",
"`. c #96D3E6",
"'. c #84CBF5",
"]. c #8BD3F4",
"[. c #9BDBF1",
"{. c #95D8F7",
"}. c #A4D6EB",
"|. c #ACDCEC",
" X c #A8D7E6",
".X c #B4DDEC",
"XX c #BBDCEB",
"oX c #B5DAE4",
"OX c #A5DCF1",
"+X c #A7D9F8",
"@X c #B6DEF5",
"#X c #A9CEE5",
"$X c #BDE3EC",
"%X c #B7E3EB",
"&X c #ABE2F4",
"*X c #A6E2F7",
"=X c #BBE4FA",
"-X c #B8E5F5",
";X c #ABE4E5",
":X c #9BE1ED",
">X c #C2DEE6",
",X c #CBDFEF",
"<X c #CEE3E6",
"1X c #C4E4ED",
"2X c #CCE3EC",
"3X c #C4EAEC",
"4X c #CAEAED",
"5X c #C5E2E5",
"6X c #DAE4ED",
"7X c #D4E9EE",
"8X c #DBEAEC",
"9X c #D4E4EA",
"0X c #C4E5F2",
"qX c #CAE5F2",
"wX c #C5EAF4",
"eX c #CCEBF4",
"rX c #C3EAFC",
"tX c #CDECFA",
"yX c #C9E4FA",
"uX c #D3E6F3",
"iX c #D4EBF4",
"pX c #DBEBF2",
"aX c #D4EEFB",
"sX c #DDEDFA",
"dX c #CDF1FA",
"fX c #DBF1F5",
"gX c #D4F2FC",
"hX c #DCF4FB",
"jX c #D4F1F5",
"kX c #E3EDED",
"lX c #EDEDED",
"zX c #E6E9EB",
"xX c #F2EEED",
"cX c #EDF2EE",
"vX c #E5F1EF",
"bX c #F1F2ED",
"nX c #F8F1EB",
"mX c #E2EDF3",
"MX c #ECEDF1",
"NX c #E6EDF9",
"BX c #F2EEF1",
"VX c #F8EFF2",
"CX c #E5F2F4",
"ZX c #ECF3F4",
"AX c #E3F5FA",
"SX c #ECF4FB",
"DX c #EDFBFC",
"FX c #E6FAFA",
"GX c #F3F3F3",
"HX c #F3F4FA",
"JX c #FBF6FA",
"KX c #F3FAFD",
"LX c #FEFEFE",
"PX c #FCFCFD",
"IX c #F8F8F5",
"UX c #CEE1DD",
/* pixels */
"ZXHXGXGXIXIXIXIXKXKXCXfXjX4X2XsXjXiXiXjXhXaX2X<X$XoX!.W. XoX#XW.W. XXXXX$X$XeXAXeXiXsXAXAXFXGXJXGXGXLXLXIXPXIXIXGXGXGXGXGXIXLXIX",
"xXBXxXxXPXLXLXLXLXSX6X9X6X6XpXhXhXAXSXNXuX XR.I.A.A.m.l.S.C.A.S.m.m.N.M.D.H./.0XfXfXfXfXpX9X<X7XZXZXLXLXLXLXLXIXGXGXGXGXlXIXLXLX",
"bXlXlXGXPXPXKXSXAXfX7XuXuXuX1X3XyX@X}.~.F.l.s.s.s.9.9.9.8.7.7.9.7.7.8.9.9.w.l.A.E..XiXpX9X2X1X$X<XpXKXPXPXLXLXLXlXMXMXlXlXIXLXLX",
"lXlXZXZXSXFXAXAXgXjX3XXXoXoX!.E.H.M.l.k.j.t.0._ ! F H G H Z A H P F F ~ ' +.8.s.l.A./..X1X3X1XqX1XiXSXKXKXPXLXLXGXGXGXGXGXIXLXLX",
"PXJXJXHXSXSXmXpXNXiX3X$XoX#X^.K.z.k.8.+.` ! S c q 3 5 t q 3 6 t k k g x C L U ( =.r.d.F./..XqXiXqXiXpXmXZXZXGXGXIXIXIXIXIXGXGXGX",
"LXPXPXSX9X>X<X2X2XqX0X|.R.F.l.t.y.+.~ V p i t r 5 , - 4 < = = , 3 5 q f j n V C R O.=.i.l.Y.|.wXdXtX<X9X8XkXcXGXLXLXLXLXLXGXlXlX",
"DXhX1X>XXX1X1X$XoX X/.Y.Z.k.9.8.' P n i 2 , 2 0 , & $ & % X X # # # & = 2 w i h N V I o.=.q.M.^.&XrX0X2X8XkXZXGXLXLXLXLXLXGXlXGX",
"2XqXgXgX0X1XqXwX$XE.G.z.t.9.+.P z 3 < 1 > * * & % X                     # & < 5 d f b F R O.7.h.D./..XqXpX8XZXHXIXLXIXIXIXGXGXGX",
"zX2X%X1XpXDXDXkX).A.k.t.+.^ S i , * # X       X                           X & ; 1 2 3 r x D E =.f.V.~.-XaXaXhXDXmXkXcXlXxXPXLXLX",
"$X1XpXGXVXSX=X^.S.k.9.@.! c 9 = % o X                                       X # = , 6 d j c D I o.3.C.`.3XgXaX8X6X8XCXkXMXLXLXLX",
"kXlXMXpXdX=XT.Z.k.8.` D g 9 , % o X     .                                   X X   # & - 1 9 g A ] &.5.N.E.rXgXiX2X<X7X8XmXKXLXLX",
"ZXlX6X4X&XP.l.k.9.[ G h e 1 = ; o O . . .     .                                 . O # & = 1 3 9 C R #.3.C.`.-XtXiXqXiXfXmXSXIXIX",
"KXDXFXwX(.Z.s.9.` A u w w < & #                                               .       # > 6 q f j S ) >.f.C.Q.@XtXeXfXFXAXCXZXxX",
"JXSXgX`.M.k.t.[ P m 8 , > * o                                                       X X # - 9 f l B Y ..;.i.J.|.wXtXiXhXfX8XkXbX",
"FXaX$XR.m.q.@.I b a 7 * o X                                                     . .       # - 8 q g b Y X.,.n.P.-XdXaXiXiX7XpXCX",
"UXCXXXG.k.r._ S q > X   X . .                 .                       .                     % < p x j M R %.2.m.E.%X1X2XtXqXiXsX",
"ZXuXP.w.9.@.Y f 1 * o X                                                                       O ; 4 q g D R *.f.B.Q.=X1X<XiXhXiX",
"8X#XB.w.0.( Z 9 , & X                                                                           X & 2 l J ( X.,.d.H.}.XX5XaXhXaX",
"oXH.z.9._ U N y * o                                                                                 # 2 g D ) *.3.M./.|.XXeXgXtX",
"&XA.y.0.~ b r - #                                                                                   # 4 l S ( ..1.v.R.&X-X1XeXqX",
"H.z.y._ G K t & o                                                                                   X & 5 M ~ ) ;.a.G.*X=X$X2X1X",
"M.t.+.] S r 2 , o     .                                                                             X % 2 k P ( #.3.C.[.=X1X1X5X",
"l.9._ Y S j t 2 #                                                                                     X = e M ~ X.:.v.P.&X$XqX4X",
"s.8.` G M j l 3 #                                                                               .     X ; 0 v ! | <.a.D._.-XtXdX",
"j.0.` Y v i y =                                                                                       X > t u G '  .5.b.~.%X=XeX",
"u.@.^ S u 5 = o                                                                                       o > d j S /  .<.v.Y.&X=XwX",
"y.O.` N r 2 X X                                                                                         % 5 f g ! ) >.p.G.[.+X-X",
"r.O./ v 0 > X .                                                                                       X % 4 f B G ) ;.i.G.[.}..X",
"r.O.D t , %                                                                                             o 1 9 v G ( %.i.G._. X$X",
"0.' b 0 - % X                                                                                       O   X , 1 k ! ( #.2.G._. X$X",
"-.R A e < > o X                                                                                         X - 3 l / R $.5.F._.|.-X",
"@.I S 9 , < # X                                                                                 X       X ; 0 r P R $.5.F.{.*X*X",
"o.T x 5 > % .                                                                                     .     X - j M ^ ~ X.2.F.{.:X@X",
"=.I b 9 1 % X                                                                                     .     X - l M ! / X.2.D.]._.@X",
"=.( / B z < X                                                                                           X = f M H T $.5.B.'._.%X",
"=.) ~ M k 3 X                                                                                       . . X & q c S T $.5.B.'.}.$X",
"r.' H g r 2 X                                                                                       . . X = t c S I %.5.F.'.|.5X",
"r.O.F c 9 4 X                                                                                       . . o 2 i c H E >.a.G.].-X4X",
"u.o.F g 3 < $                                                                                   .     X * 6 i M P  .:.v.U.{.wXaX",
"x.@.L h 5 , $                                                                                       X X > q g H ] -.5.v.U.[.tXaX",
"u.,.R A g < @ . .       . . .                                                                         * , , u P ..&.f.m.P.OX3XaX",
"s.,.E Z g q > #                                                                                 X . . & 3 r N / o.>.p.G.(.|.2XfX",
"C.i.*.I n f 5 &                                                                                     % , 2 q N ( &.:.d.G.[.$XiXkX",
"H.s.-.) A j f y % o X .                                                                           X * 4 5 q V ) ;.2.V.Y.&XqXpXzX",
").C.r.o.F g r 0 2 ; X X                                                                         X   + , 9 c P ) 1.p.K.[.rXuXkXcX",
".XH.s.=.W Z l 9 9 1 & X                                                                         X % , 3 u Z ( $.1.v.T.OX1XsXHXPX",
"qXW.C.,. .! N l r 9 < & X                                                                       # < d v n F ..<.a.F.(.}.>XZXLXLX",
"9X!.G.c.,.] H N h k w , o X                                                                   O - < 5 m / _ #.5.V.P.`.@X8XIXLXLX",
"yXeXW.m.r. .I S g r 9 3 > %   .                                                 .     X       O * 1 q Z ' X.>.d.G.(.$X7XZXKXIXPX",
"AXfX.XH.p.;.| ! K i 2 = & # X .           . . .                                 X       . . X # & w J ( X.:.a.C.^.&XgXSXJXIXGXGX",
"AXfXhX.XF.i.&.( H c t 6 1 - * + X X   . X                                       .     . O o , 9 e m L ) 1.f.M.T.OXrXAXPXLXIXlXlX",
"aXtXhX4XE.V.i.%.| ( G B j r 5 , > * #                                                   % = 2 t s C P %.5.v.H.].wXhXKXLXLXGXlXGX",
"@X&X%X1XoXR.b.2.&.| P M j r 3 1 = & o                                 .             X & , 2 5 q b G X.<.n.G.{.;XiXfXZXGXGXIXKXIX",
"1X.X}.@XeX%XH.b.=.o.I F v i 9 3 & # X                                       X X   $ , 3 9 9 f M R X.:.g.K.{.=XwX9X8XlXlXZXKXLXLX",
"vX9XXX.X0XeX|.R.v.q.o...P c r 5 6 , & o X X   .                       X X # & = , 2 5 q 9 p C T } :.n.G.(.+X0XsXmXZXbXxXGXIXLXLX",
"nXBXmX4X3XtXrX;X^.C.3.;. .F h t 9 2 , = * % o X                 X X O o % = 1 0 9 2 1 5 l F E $.4.g.G.].[.%XAXGXZXMXxXxXBXJXLXLX",
"PXIXDXCXpXiXqXoX).R.N.i.;.X.U b 5 2 2 5 9 3 = @ $       X X X       o = 1 1 1 3 6 6 t m I | %.5.V.K.^.OX$XpXMXIXIXLXIXIXJXGXGXGX",
"LXPXKXCXpXiXqXXX|.}.R.A.a.:.} ] L m i w t e 0 8 4 = % + % % o @ * > < 3 q q q q g n F W X.>.a.C.Y.].OX$X7XCXMXGXLXLXLXLXLXGXlXlX",
"LXPXKXCXpX7XiX1X>X0X=XOXL.b.3.%...I A m x u r r r 5 3 3 6 6 1 1 0 0 3 2 5 r j x Q U { >.2.d.F.T.[.|.>X6XlXBXcXGXLXLXLXLXLXGXlXlX",
"JXKXZXCXmXpXpXiXuXaXaX$X XR.C.g.<.&.| ( Y S B B j r 9 9 3 3 1 1 8 9 e e p V T W X.&.3.p.V.U.].[.wXjXZXGXVXBXbXcXIXIXIXIXIXGXGXGX",
"GXZXMXZXSXSXAXAXsXCX8X<X>XoX/.Y.b.p.3.;.;.X.E I F C n g u r 9 w g b C L R X.&.:.5.d.C.K.'.[.|.$X6XCXPXLXLXLXLXLXGXGXGXGXGXIXLXLX",
"lXlXlXZXPXPXKXKXZXCXmXkX8X2XXX.XOX~.F.v.p.2.6.:.$.X.{ { E W W W R { $.>.3.2.d.m.A.U.].). XXXuXlXMXGXLXPXPXLXLXIXlXMXlXlXlXIXLXLX",
"xXbXcXGXLXLXPXPXIXHXZXGXcXkXpXpXaX0X}.^.H.J.N.e.g.a.6.3.,.3.4.5.5.5.p.v.M.G.Y.].`.OXrXgXsXkXlXBXBXGXPXPXLXLXLXPXGXMXGXGXGXIXLXLX",
"GXGXGXGXPXPXIXPXJXGXbXGXHXHXZXZXZXAXtX$X|.`.~.P.P.G.F.C.M.A.C.C.B.A.G.U.T.].).OXrXtXpXZXZXHXHXbXHXGXPXIXIXHXLXIXGXGXGXGXGXIXLXIX"
};
