/* XPM */
static char *_e205137da2d4526a45a85db4b2b9d7eTNy9YDKNBD9vWOGb[] = {
/* columns rows colors chars-per-pixel */
"64 64 151 2 ",
"   c #86AF25",
".  c #8AAD25",
"X  c #8CAE2A",
"o  c #87B224",
"O  c #8BB426",
"+  c #8DBC26",
"@  c #8CB529",
"#  c #8EBD2A",
"$  c #91BD26",
"%  c #90B52C",
"&  c #91BE2A",
"*  c #99BF2B",
"=  c #93BF30",
"-  c #8FC127",
";  c #8FC02A",
":  c #92C227",
">  c #9AC627",
",  c #97C62A",
"<  c #95C52B",
"1  c #90C02C",
"2  c #91C12D",
"3  c #92C02C",
"4  c #93C12D",
"5  c #91C32C",
"6  c #90C22D",
"7  c #92C32C",
"8  c #90C02E",
"9  c #93C02F",
"0  c #91C32E",
"q  c #90C22F",
"w  c #92C22E",
"e  c #93C32F",
"r  c #95C12C",
"t  c #96C02C",
"y  c #97C12D",
"u  c #94C22C",
"i  c #95C32C",
"p  c #95C32D",
"a  c #96C32C",
"s  c #96C22D",
"d  c #95C12E",
"f  c #94C22E",
"g  c #95C32F",
"h  c #97C32E",
"j  c #93C42C",
"k  c #92C52C",
"l  c #92C42D",
"z  c #93C42D",
"x  c #93C62D",
"c  c #93C52E",
"v  c #92C42F",
"b  c #94C52D",
"n  c #96C42D",
"m  c #97C42D",
"M  c #95C62C",
"N  c #97C62C",
"B  c #96C72D",
"V  c #94C52E",
"C  c #96C42E",
"Z  c #97C52E",
"A  c #97C52F",
"S  c #95C62E",
"D  c #94C72E",
"F  c #94C62F",
"G  c #95C62F",
"H  c #96C72F",
"J  c #93C32C",
"K  c #98C52A",
"L  c #98C32D",
"P  c #98C52C",
"I  c #99C62D",
"U  c #98C72D",
"Y  c #98C42F",
"T  c #9AC52F",
"R  c #98C62F",
"E  c #99C62F",
"W  c #9BC62E",
"Q  c #9AC72E",
"!  c #99C62D",
"~  c #95C82D",
"^  c #95C82F",
"/  c #97C82E",
"(  c #96C82D",
")  c #9DCB2A",
"_  c #9DCB2B",
"`  c #9BC82D",
"'  c #9AC92D",
"]  c #98CA2D",
"[  c #99C82E",
"{  c #98C92F",
"}  c #9BC82F",
"|  c #9AC92F",
" . c #9AC92E",
".. c #8FC030",
"X. c #95C231",
"o. c #97C330",
"O. c #97C332",
"+. c #96C430",
"@. c #97C531",
"#. c #97C733",
"$. c #97C735",
"%. c #95C431",
"&. c #99C530",
"*. c #98C630",
"=. c #99C730",
"-. c #99C731",
";. c #9AC730",
":. c #9AC631",
">. c #9DC530",
",. c #9CC731",
"<. c #9FC732",
"1. c #99C631",
"2. c #97C830",
"3. c #97C831",
"4. c #97C830",
"5. c #9AC831",
"6. c #9BC831",
"7. c #99CA30",
"8. c #9BCA30",
"9. c #98C932",
"0. c #9AC832",
"q. c #9BC932",
"w. c #9BC933",
"e. c #9CC930",
"r. c #9DCA31",
"t. c #9CCB31",
"y. c #9CC932",
"u. c #9CC833",
"i. c #9EC933",
"p. c #9CCA33",
"a. c #9DCA33",
"s. c #9ECB32",
"d. c #9FCC31",
"f. c #9DCC32",
"g. c #9FCC33",
"h. c #9FCE32",
"j. c #9DC934",
"k. c #9DCB35",
"l. c #9ECA35",
"z. c #9FCB36",
"x. c #9ECC35",
"c. c #9CCA32",
"v. c #A2CA2F",
"b. c #A1CE33",
"n. c #A1CC36",
"m. c #A0CD36",
"M. c #A2CD34",
"N. c #A1CD38",
"B. c #A2D133",
"V. c #A5D23B",
"C. c #A9D739",
/* pixels */
"^ S i r & & 1 j 5 5 5 5 S ^ j 5 j j 1 # # & & & i *.r $ i 1 # ; 5 5 5 i i R i & & + *.| $ i k.i # # ; 1 1 5 5 5 ; # ; 1 S S S r ",
"^ S r r & + # # 5 5 5 5 5 j 1 5 5 1 1 # # 1 1 & 5 i r S 5.S # ; # # # & 1 1 & & i 5.5.j i *.i + 1 1 # # # # 5 1 i 5 ; ; 5 j 5 : ",
"^ S R R R i j j 5 5 5 # & 5 1 & & # # # 1 1 1 & S r j e.e.S ; # # 1 # # # 1 1 1 5 h.2.- S S + + 5 5 5 5 1 # # # *.S 5 # ; ; 5 5 ",
"j S S R i 5 5 1 5 5 5 # + # # & + + 1 1 1 5 5 5 | j S | R 5 & # # 1 1 ; # ; ; ; 5 *.S j 2.5 & e.5.*.i i 1 1 # # *.S 5 # # ; 5 1 ",
"; r S S 5 + + 5 5 5 # + O O O @ + & 1 S S j i S S R | R 5 & & & + # ; ; # + # ; S S S | 2.i S k.e.i & + + + # 5 i r 5 # # # 1 1 ",
"+ & i i 1 & 1 +.5 1 1 # + # # + + # 1 S j 5 j R j 5.f.R S i 1 & ; ; 5 5 5 & & 5 S S 2.S 5 S i o # + + & i S i i r r 1 1 1 1 1 1 ",
"+ + # & & & & i 1 1 1 1 1 1 1 # # # ; j j j S S S 5.| R *.i & & & & # & & # & & 5 5 S j 5 j 5 o + + & *.k.M.e.R j S S 1 1 # # # ",
"& & # # & # # # # # 1 1 1 j 1 5 & & & j S S S 2.S S & & i # o # @ @ O O O O O @ + 5 S ^ S S S 5.o.& & & i j r r j j 1 1 # O O o ",
"O O O O O O O O O # 1 2.2.S S R r 5 5 5 5 S *.5.| S j S i 5 # # + + O O # # # # j j S S *.5.) ) 1 & & R e.b.e.j $.j j 5 # # # O ",
"# # # @ @ @ # # & & ; 5 j 5.| j *.S 5 5 5 5 i i 5 i i & & 1 1 # 1 5 5 & & & # ; 5 S S S r R b.C.+.1 + $ & i S 5 & 1 5 5 # # # # ",
"1 # # & & & 1 & i 1 j 5 j ^ 5.5.e.*.i 5 ; ; ; ; # 1 & & & & & & + & 5 5 & # # 1 5 S 5.| 5 + $ S # # & 1 & & & # O i j 5 1 1 & i ",
"5 ; ; # 1 S S 5 S S S | S j i R o.i 1 # ; ; ; # 1 # # i r + $ R ; r S S 5 & ; 1 & 5 R f.f.S & & 1 # # & + & 1 & + >.| 5 5 1 5 R ",
"j j 5 ; j ^ S j S S S S | | r + & & & # ; ; ; # 1 + 5 R R $ : *.j S R R j 5 & # 1 & 5 | e.*.o.o.1 # # # # 1 1 + & M.e.r 5 1 5 ^ ",
"| ^ S 5 j ^ S j + S 5.S S e.5.r # # # # ; 1 # # + 5 j j K K S S 5 5 j j R S i 5 1 & & & & # & i & + + 1 5.k.i o i e.| 5 # # ; j ",
"e.| S 5 j S ^ j + & *.R S L >.>.& & # # # # & & + 5 S j j S S 1 j S R | | 5.*.+.+ # 1 1 # 1 5 j i 5 5 5 i e.f.R S R j ; # # # ; ",
"} R S 5 5 2.| | i + $ *.R $ $ * i 1 # # # # & & ; 1 1 S S 5 ; 1 j S R K j 5 & & 5 1 # # = ; ; + + i e.| 5 r } e.5.j j 1 ; X.1 + ",
"R | i & i *.R K + # # # 1 R j $ } e.S + $ R *.& # # # 5 j 5 5 + K i & 1 1 # ; ..@ @ @ @ # & & # M.M.f.K j ( | | | | i & @ O O O ",
"R e.i + i h.e.r ; # # # & R e.e.K 5.| j S k.5.& + S 5 + 5 # # +.R i # & i 5 1 # # # # @ # & & & * K | ` S S S j R i # + O O O O ",
"i i + + 1 i & $ # # 1 1 & 5 S } K | S 5 j 5.5.r : B.| + i & # o.5.i O O & i *.1 O @ @ O O @ @ # } e.e.| S S *.*.S 1 # # @ @ # # ",
"+ + + & 5 + + & & & 5 1 & & 5 | | | S 5 5 S S 5 | b.R $ i *.& # 5.S # + 5 R e.i O O @ @ O O @ + e.e.5.5 ; 5 j +.1 1 # & & & # # ",
"+ i S 5 i i * & & & # # # & S h.S ^ S S S S S 5 *.i 5 & i e.| $ : i 1 1 *.e.} $ O O O O @ O @ $ & r i 5 ; # # # # # # 1 & # @ @ ",
"i S S S *.L $ O O O O O @ + r *.S S i i i i j S *.& 5 r r } B.> 5 *.+.+.S K R $ L & @ O . O # & & & 5 5 5 5 5 ; 1 # & 5 & + O O ",
"+.j j | e.& O O . O O O O O + & j 5 $ $ $ & 5 S S 5 r i j } b.} K 2.j 1 j j | S n.o.& @ @ @ $ & 1 # # + ; 5 5 5 i i S R r + O O ",
"+ S | ( | *.& O O @ @ O O O & L & # & & & & # & : 5 + : 5.e.R R j S j j x j | R K $ o O @ & & # # # # 5 S S S j i S } b.| $ O O ",
"O & >.K K e.*.+ O @ @ O @ i } } & & R | r *.*.& 1 1 1 # # 5 j S ^ j j j 1 +.+.# O $ $ # @ @ @ @ @ o O i 2.S S ^ K } R R K & * @ ",
"O O & *.L $ $ * & $ O O & *.} ` & & R 5.j R 5.5 # # # # # 5 1 j 5 + ; 5 ; 1 1 # & 1 i 1 & # # # # & S R *.p.| : r | e.b.R $ # O ",
"@ O O # $ * * # *.i $ + & *.5.K 5 r | f.K | | r 1 # # # ; ; ; ; 5 & r S 5 + ; 5 j j j S 1 # # ; & S | : j e.f.` | R i S & + & # ",
"& = # O @ u.k.& | | R 5 & r R | 5 j ^ 5.^ ^ S 5 1 # # 5 5 5 5 # 5 r S *.S 5 5 1 S j j S j ; + ; ; : j | r r | b.R 5 $ 5 1 1 1 # ",
"5 & & & & & R R K | 5.S 5 5 S 5.1 5 5 j S S 5 + # # ; 5 j S j 1 # 5 R R *.^ S 1 | j 5 S *.S 5 & # 5 5.h.i + $ S i & + & # 1 1 # ",
"5 + & S i r j K j S S S S S S S 1 1 ; 5 1 1 5 # & 5 5 i i i i 5 & *.R K | R 5 # e.r r i R R r & # 1 5.*.# O # & i & 5 # + + & & ",
"1 5 S R e.f.f.j S j 5 1 1 1 & & # # # # & & & 1 5 i i i i 5 & & i 5.R j R i + # S r 5 5 i i 1 & & 1 i & + # i r + + i 1 5 R r $ ",
"# # i S j S *.*.j j 1 5 # + O O O @ @ O @ @ # o.+ & 5 5 5 5 5 5 r j r : S 5 # X.5 5 5 # # 1 1 # & + : j i S *.R R & 5 + S V.M.R ",
"; ; ; ; 5 j S j S 1 1 # # # @ O @ @ @ O + # ; ; 5 i i S S S j S j 1 ; 5 +.1 # # & # O O # & & 1 & # 5 j S R R R | r $ 1 *.w.5.2.",
"; ; # & & 5 5 ; 1 1 1 1 1 1 & & # & & & & 1 1 5 & i S S S R S r ^ S j j S 5 # # # O O O O # # # # 1 1 S S S R e.f.R & & # # 5 5 ",
"1 # & & & & & & & # # 1 1 # & # & i i 5 5 & # # # i S i i *.S & j r j S 5 ; 5 ; & # # # & & 1 1 # 1 1 j j 5 i R S r # # # + & r ",
"# & # # # # # # + # # # # # & & i S i 5 $ # # # # 1 5 5 5 S 5 + 5 & i i & 5 1 # & & 5 1 1 1 1 # # # 1 1 1 5 5 5 r & & i w.5.R j ",
"# # # O O O O O + # # # 1 1 1 i S R | j i 1 1 1 1 # # # 5 5 ; ; +.& & = # # # # 5 r j S j 1 ; # 1 # 1 1 S i & & 1 # & i *.R r & ",
"# # # + # # # & # & # # # # 1 1 i S R S S S 1 # 1 # # # 1 # # 1 & # @ O O O # & S | 5.5.S S 5 5 5 ; 5 i S 1 ; # # # # & # $ & i ",
"# 1 1 i i i S *.i i 5 5 # # # # # 5 j j S S 5 # 1 # # 1 # # # 1 # O O O O o O o.R | | S S j 5 i j 5 5 5 i 5 5 5 ; 5 5 5 & & i u.",
"1 j S S S S S S R S i 1 1 1 1 1 X.1 j j S S j # # 1 1 # # # # # ; & # & & O O >.} } | S S S R *.S S 5 r r 5 j ^ 5 ; # & & # O O ",
"i | | j 5 j K j | S j j j : : j 1 # + R | 5 j 1 # # 1 + & + j j %.%.; # 1 1 5 5 S N.>.* R } ( ( r R j ^ j - ^ j j 5 5 #   X % X ",
"R i 5 5 S 5.f.f.S S R e.f.| 5.e.1 # & k.f.i 1 # 1 # 5 S 5.i S 5.1 5 5 5 5 5 i i i R 5 r M.M.| ( & R *.S j S e.5.| j 5 # O O X . ",
"N.i $ j 5.5.*.5.5 i R k.e.5.*.*.X.# & S S $ 5 # ; i i r i e.| j j 5 S | j K | K 5 & + i M.e.j j + R 5.i R e.} b.e.5.i # # @ O @ ",
"e.5 + j +.j & 5 # 5 1 S S 5 ; # 1 # & 5 & + 5 5 r R r 5 $ | R j R j | e.R R e.R # # & i S 5 + ; + i *.r *.M.K v.| *.5 # 1 # & o.",
"& + + 5 1 5 ; & # # # 5 5 # # # # # S R S S j 1 5.i $ *.i r r M.i & i *.& * o.* # 1 & & # # # ; # & r & >.>.$ K & r 5 # 5 # 5 5.",
"i i i 5 ; 1 1 1 1 # # # # # # 1 1 5 *.S i S S S 5.S i 5.R 5 5 *.& # # # O O % @ @ @ + O + 5 j 5 ; & & & *.S + 5 + & 5 5 1 5 5 R ",
">.*.S 5 5 5 # # 1 1 ; ; ; # # # 5 ; S & + i 5 5 1 S S i i & & + @ O O O O O O O O O O O # j S j j j 5 i i ; 5 # 5 i S S 5 i S R ",
"L & + # 1 1 5 1 # # ; 5 5 1 1 # 5 5 5.i 5 S 5 + ; + & & i $ & & O O O O @ @ O O @ @ & & 1 j ^ ^ ^ 5.S j ; # j + S i S 5 & i 5.R ",
"O # # 1 1 ; ; 5 & r r $ & 5.*.$ ; S R K } 5.5 + - 5 S *.*.5 # ; # # ; # # # # # # 5 j S S j j j 5.e.e.*.i & & & *.1 # # # i i & ",
"i & & 1 1 ; ; 5 5 S 2.i r *.*.5 j S S R R r ; 1 j S i 5 & & # 1 +.5 5 5 1 # 1 +.S j j j S S S S r $ & r i & $ & & 5 S S S S i & ",
"*.i + # 1 1 # # 5 S 5.2.j S S r +.+.S R S & # %.5 S +.& & & # 1 +.2.^ S 1 1 j 2.5.5 + S 5.R S | 5.r + + & 1 5 5 j j j j j S S r ",
"*.i & # 1 1 1 1 # ; S +.j 1 S 5 1 S S R S 5 # 1 # 1 1 1 1 1 ; 5 i 5.f.| i i S j *.5 $ 5 R R S r 5.*.5 + + & i 5 j j S S r r R R ",
"5 & & & & & & & # # 1 S 1 5 5 5 # 5 1 5 i 1 ; # 5 1 # # # # 5 *.i j ` | S 5 i K j S 1 + + R R $ $ 5 i 1 # # & 5 & 5 *.*.5 & 1 +.",
"O # # # O @ @ @ # # # 5 5 5 5 & ; j 5 # 5 S j 5 5 & # # 1 # & i h.S j e.*.+ & f.e.i # # # # & i R r S h.2.+ & e.S & & i i 1 1 # ",
"O O @ O O O O @ # # 5 1 & 5 r 5 S S 1 5 S S S S j i 5 1 X.1 + + k.S r R i + & 5.>.& + 1 ..+ # R M.| 5.p.2.5 1 h.5.5 $ i R i 5 ; ",
"@ O O O O @ $ & & 5 i 1 & i *.*.S S 5 S 2.S j | } 5.j # ; 1 5 $ + $ & $ + & & r + & 1 # # X.X.& K R R j j S j r j j f.M.| 5 5 j ",
"& # + # # # @ # % @ O $ i k.e.L j j j j 2.S : b.v.} R 5 # 1 +.i # 5 # # 1 S 5 + + 1 ; j 5 + 5 ; j | ^ ( j j j S i S S j 5 1 1 1 ",
"1 & ; 1 & $ # # @ @ # # 5 S S r 5.| 2.S S R r R M.e.i # # 1 S r S 2.+.1 5 j *.f.1 S # # # # i & i 5.2.S j 1 +.+.5 S S j 5 5 # # ",
"+ 5 j 5 r & & & # # ; ; ; ; 5 r k.*.2.5 5 S r $ *.5.r # S S j r j S S S 2.S R } 1 X.# @ @ @ # @ # i i i 1 & # & # 5 S j 5 # # # ",
"S j 5 j } M.*.+ j 1 1 1 1 # 5 S 5.S S + + S S + 5 S 5 5 p.f.j K K j : j | | j K & & # # # @ O O + & & & & # # # # & 1 1 1 # ; # ",
"R S ( ` } M.S + 5 & # & & & & L S 5 5 + + *.*.& + 1 ; 5 t.f.j j f.| j j S K R _ 5.5 + 1 & # O $ *.*.& + & i i L 1 & & # # 1 1 ; ",
"j S | ` ` } r + O o o O @ # & & # # 5 + + *.+.1 # 1 # ; S i 5 5 f.| j j 5.5.R R M.r + + 5 5 & L f.e.5 $ S | R K *.i & # # # # # ",
"w.S 5 R M.M.R # O O O O @ # # + # ; i 5 r S 5 1 1 5 5 5 ; # # # S r & 5 5.e.i $ } & 5 # # ; 5 5.| R r 5 *.5.K K 5.i & # # # # # ",
"1 j | } K & & 1 & & & @ # # # + ; j *.R 5.S + 1 1 i S S 5 # # # 5 i & # 1 i r r O & k.+.+ # ; 5.*.R 1 5 S 5.| | | i 5 1 # # # 1 "
};
