/* XPM */
static char *ad59de92a5064af3954b8b47c7723c7bJYNdNuJ4vt0MduIy[] = {
/* columns rows colors chars-per-pixel */
"64 64 223 2 ",
"   c #010101",
".  c #0A0504",
"X  c #050800",
"o  c #02020A",
"O  c #0E0D0C",
"+  c #0A0708",
"@  c #130B01",
"#  c #110904",
"$  c #12110D",
"%  c #1D130D",
"&  c #1E180C",
"*  c #060A13",
"=  c #090818",
"-  c #131313",
";  c #1E1C15",
":  c #191919",
">  c #1C1513",
",  c #071019",
"<  c #22160B",
"1  c #211C14",
"2  c #221F18",
"3  c #271713",
"4  c #23211A",
"5  c #26211A",
"6  c #34241C",
"7  c #24220D",
"8  c #0E0824",
"9  c #0D0721",
"0  c #110A25",
"q  c #130C2C",
"w  c #190C2A",
"e  c #190C39",
"r  c #1B1932",
"t  c #201A32",
"y  c #12223C",
"u  c #2A2727",
"i  c #332C24",
"p  c #322D29",
"a  c #3A342A",
"s  c #343434",
"d  c #3C3D3C",
"f  c #2F3533",
"g  c #4D3D29",
"h  c #674B34",
"j  c #6B533A",
"k  c #524A3D",
"l  c #1E1544",
"z  c #1F164B",
"x  c #171E4B",
"c  c #1D1952",
"v  c #221545",
"b  c #22154A",
"n  c #23194A",
"m  c #221552",
"M  c #211A55",
"N  c #260E48",
"B  c #11294B",
"V  c #152648",
"C  c #1C295B",
"Z  c #21215D",
"A  c #1D2B63",
"S  c #1B356B",
"D  c #1D3A75",
"F  c #232C66",
"G  c #233B73",
"H  c #223E79",
"J  c #263976",
"K  c #1D4171",
"L  c #1F467E",
"P  c #21497E",
"I  c #24447D",
"U  c #4B4D49",
"Y  c #434343",
"T  c #4D514D",
"R  c #51524E",
"E  c #4F5451",
"W  c #545553",
"Q  c #595956",
"!  c #5C5C5B",
"~  c #575759",
"^  c #544F53",
"/  c #745948",
"(  c #5F605B",
")  c #62625C",
"_  c #6A665B",
"`  c #6B6657",
"'  c #5E5E60",
"]  c #646363",
"[  c #696664",
"{  c #696769",
"}  c #6C6B6B",
"|  c #6A6865",
" . c #75716D",
".. c #757575",
"X. c #716D6C",
"o. c #886749",
"O. c #93744E",
"+. c #967252",
"@. c #987654",
"#. c #8F6F55",
"$. c #A67E5A",
"%. c #827B6A",
"&. c #9B7B62",
"*. c #877F73",
"=. c #AF865D",
"-. c #8A8575",
";. c #938C76",
":. c #85806C",
">. c #A98A6A",
",. c #B38D65",
"<. c #B98C6A",
"1. c #B8946A",
"2. c #AB8D71",
"3. c #C9976C",
"4. c #C5996E",
"5. c #CC9A6C",
"6. c #C59669",
"7. c #D19B6B",
"8. c #D49D67",
"9. c #C69B71",
"0. c #CA9C72",
"q. c #C59C79",
"w. c #C99978",
"e. c #CAA27A",
"r. c #DDAD7D",
"t. c #1E4683",
"y. c #1D4984",
"u. c #1F4689",
"i. c #1B4B86",
"p. c #204684",
"a. c #224985",
"s. c #224689",
"d. c #224A8A",
"f. c #284483",
"g. c #AAA689",
"h. c #B2A88C",
"j. c #AFA893",
"k. c #B3AD94",
"l. c #B5AC97",
"z. c #B9B49C",
"x. c #B4B5B5",
"c. c #BABBBC",
"v. c #B7B8B8",
"b. c #AFADA7",
"n. c #8C8C8B",
"m. c #D5A984",
"M. c #DEB289",
"N. c #DAB086",
"B. c #C5B895",
"V. c #E5B78A",
"C. c #E7BC91",
"Z. c #EBBD93",
"A. c #F2BF96",
"S. c #C4BEA8",
"D. c #EBC49A",
"F. c #F3C59B",
"G. c #F5C99E",
"H. c #FACB9F",
"J. c #FCC49F",
"K. c #C7C2AE",
"L. c #D8C8A7",
"P. c #C1C1BF",
"I. c #D8CFB1",
"U. c #DAD2B6",
"Y. c #DBD4BA",
"T. c #D7D1B1",
"R. c #D8D0AB",
"E. c #E8C9A6",
"W. c #F5CBA3",
"Q. c #FACCA1",
"!. c #FACEAA",
"~. c #F5CBA5",
"^. c #F5D3AC",
"/. c #FDD3AB",
"(. c #F8D2A7",
"). c #EADEBD",
"_. c #E7DEBF",
"`. c #F9DBB4",
"'. c #E9E1BD",
"]. c #F6E3BC",
"[. c #FCE2BD",
"{. c #FCE4BB",
"}. c #BFBEC1",
"|. c #BCC2C3",
" X c #C4C4C4",
".X c #CBCBCB",
"XX c #C3C6CD",
"oX c #DCD7C2",
"OX c #D3D3D3",
"+X c #DBDBDB",
"@X c #DBD7D7",
"#X c #E2DFDE",
"$X c #ECE3C2",
"%X c #ECE5C9",
"&X c #FEEBC5",
"*X c #FCEECD",
"=X c #F7E8C6",
"-X c #FEF1CE",
";X c #FDF0C6",
":X c #FDEED2",
">X c #FFF3D2",
",X c #FFF6DA",
"<X c #FFF9DC",
"1X c #FEF9D3",
"2X c #E2E4DF",
"3X c #DFE3E6",
"4X c #EDEDED",
"5X c #E7E6E8",
"6X c #F1EEEC",
"7X c #F3F2EF",
"8X c #FFFAE2",
"9X c #EEEDF2",
"0X c #F1EEF3",
"qX c #EFF2F2",
"wX c #F3F3F3",
"eX c #F5F5F9",
"rX c #F7FAF9",
"tX c #FAFAFA",
"yX c white",
"uX c #FEFEFE",
"iX c #FDFDFD",
"pX c #FCFCFC",
"aX c #F9F8F7",
/* pixels */
"wXwX4XwXpXpXpXpX0XwX6XtX+X|.|.c.x.v.v.v.P. XP.v.v.v.v.c. X Xc.v.v.v.v.}. X Xc.v.v.v.c.}. X Xc.v.x.x.c.#XaXiXeX4XwX4XpXpXpXtXwX4X",
"wXwXwXeXtXpXpXtXqXqX4XwX-.$ O % O - - - - O O O O O O O $ - $ O O O O O $ $ O O O O O $ - - O O - - O ..pXpX4XeX4XeXtXtXpXpX4X6X",
"tXeXtXtXeXeXtXeXwXrXrXpX..                    X                                                       } tXeXpX7XeXtXeXeXtXtXeXtX",
"pXpXpXpXtX5X4XwXiXpXpXpX..    o X                                                               X     } eX4XpXiXpXtX4XwX4XwXpXpX",
"eXpXpXtXwX5XwXOX@X+X3X@X .& @ % % $ 1 2 1 2 ; ; 2 4 4 4 4 4 4 4 2 2 4 4 4 2 2 4 2 4 4 4 4 4 4 4 2 1 4 | OX+XOX+X+XtXwX4X4XtXpXtX",
"tXwX4XwXpXpXOXs u 4 : 5 j >.,.=.=.,.m.M.N.M.M.C.U.U.U.U.U.U.U.U.Y.Y.Y.U.U.U.U.Y.U.U.U.U.U.U.Y.Y.Y.oXoX-.u : u 4 s  XpXpXtXeXwXeX",
"eX4XwXwXtXpX+X-     o . h 0.7.7.q.e.E./.~.~.~.`.>X>X>X>X>X>X>X>X>X>X>X>X>X>X>X>X>X>X-X-X>X>X>X>X>X>X1X-.        O  XpXpXpXpX4XwX",
"wXwXwXwXpXtX+X:         j q.0.4.5.0.A.Q.G.Q.Q./.*X*X-X>X>X>X>X*X*X*X*X-X>X>X-X*X>X-X-X>X>X>X-X*X-X;X1X;.        :  XpXpXpXpXwX4X",
"rX6X0X0X#X5XXX3 X O . @ j e.0.0.5.e.D.~.Q.Q.!.^.%X$X$X%X$X;X-X-X-X-X-X-X-X-X-X-X=X%X$X'.%X%X&X-X-X>X,X;.@ @ $ + 7 }.5X2X5X5X7XtX",
"pXn.s s a f d #.@.&.&.@.q.D.Z.F.D.D.].{.{.&X&XB.a a i a a z.>X:X-X-X-X-X-X-X-X-X-.i a a a k U.:X-X*X,X$Xz.S.K.K.z.^ s s p p ..pX",
"eX[         @ 1.8.7.0.0.V.H.F.!.W.^.&X>X-X>X1Xg.o     o   l.<X*X-X-X-X-X-X-X-X-X_         > Y.<X*X:X*X>X1X>X>X-X%Xu         U wX",
"rX[         < ,.0.4.9.9.M.Q.Q.Q.J.!.&X>X*X>X<Xg.o       X k.>X-X-X-X-X-X-X-X-X-X` +     o ; T.-X*X1X*X*X-X-X-X-X_.p     o   U 9X",
"wX[     o   < <.q.q.q.9.N.Q.Q.G.Q.!.&X-X>X>X,Xh.X   X     k.-X-X-X-X-X-X-X-X-X-X`         1 R.-X>X>X-X-X>X-X*X-X).p         R 5X",
"eX|       o < <.5.3.3.0.V.Q.Q.Q.H.(.&X=X>X>X:Xh.    X o   l.1X>X-X-X-X-X-X-X-X-X_   X   o 1 I.>X-X=X-X-X>X>X>X1X).i         W 4X",
"pX[   X   o % ,.5.3.6.5.V.W.Q.G.G.(.-X-X>X-X1Xh.+     o   j.>X:X-X-X-X-X-X-X-X-X`   X     ; I.,X1X>X1X*X*X*X>X>X$Xp         U pX",
"pX .        % ,.q.e.9.9.M.W.Q.H.Q.~.&X-X>X*X<Xg.o       X k.1X-X-X-X-X-X-X-X-X-X_     X   & U.>X>X:X*X-X1X*X>X>X).p         W eX",
"rX}         % ,.0.9.9.9.M.Q.Q.Q.G.(.&X*X-X1X*Xh.X       . j.>X>X-X-X-X-X-X-X-X-X`         1 I.>X-X-X-X-X-X-X>X>X).p         T 9X",
"eX{         % ,.0.9.9.9.M.Q.Q.Q.Q.~.&X>X>X>X:Xh.X         k.>X*X-X-X-X-X-X-X-X-X_         & I.1X-X-X-X-X-X-X>X>X).p         U 5X",
"eX{         % ,.0.9.9.9.M.Q.Q.Q.Q.~.&X-X-X>X,Xh.      o   z.>X-X-X-X-X-X-X-X-X-X_ o     o 2 T.>X-X-X-X-X-X-X>X>X).p         U 5X",
"tX}         % ,.0.9.9.9.M.Q.Q.Q.Q.^.&X-X>X1X,Xg.X     o   l.>X-X-X-X-X-X-X-X-X-X_         % T.>X-X-X-X-X-X-X>X>X).p         T 0X",
"pX}         % ,.0.9.9.9.M.Q.Q.Q.Q.(.&X&X-X-X-Xh.        . k.>X>X-X-X-X-X-X-X-X-X`     .   < I.>X-X-X-X-X-X-X>X>X).p         W aX",
"pX}         % ,.0.9.9.9.M.Q.Q.Q.Q.W.`.`.`.`.[.L.*.%.:.*.%.U.-X*X-X-X-X-X-X-X-X-Xk.*.%.%.%.;.'.,X-X-X-X-X-X-X>X>X).p         W eX",
"eX{         % ,.0.9.9.9.M.Q.Q.Q.Q.W.~.~.W.W.(.^.<X>X>X<X:X>X>X>X-X-X-X-X-X-X-X-X>X8X1X>X<X,X*X*X-X-X-X-X-X-X>X>X).p         T 9X",
"eX{         % ,.0.9.9.9.M.Q.Q.Q.G.Q.Q.G.H.H.G./.*X-X-X*X>X-X-X:X-X-X-X-X-X-X-X-X-X*X-X-X*X-X-X,X-X-X-X-X-X-X>X>X).p         U 5X",
"eX{       o 1 ,.q.0.9.4.M.~.~.~.Q.Q.G.Q.G.G.Q./.-X-X-X-X-X-X-X-X-X-X-X-X-X-X-X-X-X-X-X-X-X-X-X-X>X*X>X*X-X-X>X>X$Xp         T 5X",
"pX{       o % ,.3.3.3.5.r.C.V.V.C.C.F.Q.W.W.Q.(.[.[.[.[.[.[.[.[.[.[.[.[.[.[.[.[.[.[.[.[.[.[.[.[.[.].].].{.[.[.].E.i         R aX",
"tXX.o       % 1.9.9.9.9.9.4.4.0.4.0.Z.Q.Q.Q.G.G.W.W.W.W.W.W.W.W.W.W.W.W.W.W.W.W.W.W.W.W.W.W.W.W.G.Q.Q.W.Q.F.Q.!.D.6       X W aX",
"wX}       X % ,.0.9.1.9.0.9.9.q.9.0.F.Q.Q.Q.Q.Q.G.G.G.G.G.G.G.G.G.G.G.G.G.G.G.G.G.G.G.G.G.G.G.G.Q.H.G.H.Q.Q.Q.H.C.6         T eX",
"eX[         < 1.7.0.0.9.5.7.3.5.4.0.F.Q.Q.Q.Q.G.H.H.Q.Q.Q.Q.Q.Q.Q.Q.Q.Q.H.H.Q.Q.Q.Q.Q.Q.Q.Q.Q.H.Q.F.G.Q.~./.(.H.D.6   X     U 9X",
"eX|         $ / o.o.#.o.$.0.0.0.4.0.V.Z.C.Z.C.C.C.C.C.C.C.C.C.C.C.C.C.C.C.C.C.C.C.C.C.C.C.C.C.C.A.Z.A.m.>.2.>.>.&.1       o T 5X",
"eX|     .     . .     . j q.q.9.0.9.4.4.6.4.0.0.9.9.9.9.9.9.9.9.9.9.9.9.9.9.9.9.9.9.9.9.9.9.9.9.9.4.9.j .     X #     X     E 5X",
"pX}         o     o o   h 0.5.6.4.0.4.0.9.0.9.4.5.0.0.0.0.0.0.0.0.0.0.0.5.0.0.0.0.0.0.0.0.0.0.0.4.5.e.j   o o     o       o E aX",
"tX}                   . h q.0.0.0.0.0.0.0.0.0.0.0.0.0.0.0.0.0.0.0.0.0.0.0.0.0.0.0.0.0.0.0.0.0.0.w.5.e./ .                   W eX",
"tXn.d d Y d d X         g +.O.O.O.+.+.O.+.+.+.+.+.+.+.+.+.+.+.+.+.+.+.+.+.+.+.+.+.+.+.+.+.+.+.+.+.O.@.g         X s Y Y Y d ..wX",
"wX4X5X5XeXpXOX:     o   . # . . O + . . . X X X + + + + + + + + + + + + + + + + + + + + + + + + . . @ . o o     - c.tXwXwXeX5X4X",
"eX4X4XwXtXpX+X:           o o o                                                                 o               - .XpXpXpXtXwX4X",
"eXeXtXtXtXpXOX:                     o o                                                                         - OXeXtXeXeXtXtX",
"tXpXpXpXwXwX.X:           * o o . o * , = = = * * * * * * * * * * * * * * * * * * * * * * * * * * , , o         - .XwXwXwXwXtXpX",
"pXpXpXtXwXeX.X- X     o 8 l l l v x S K D H I K K K K K K K K K K K K K K K K K K K K K K K K K G H J y       X : .XeX4X4XeXpXpX",
"eXwX4XtXtXtX+X:       o 0 l l b N c G d.u.u.u.y.u.u.u.u.u.u.u.u.u.u.u.u.u.u.u.u.u.u.u.u.u.u.u.u.i.u.a.B o       -  XpXpXtXtXeXwX",
"eX4XwX4XpXpX+X:         0 b m b b m H t.a.y.a.a.a.t.t.t.a.a.a.a.t.a.a.a.t.t.t.t.a.a.a.t.t.t.t.t.a.p.u.B         -  XpXpXpXpX4X4X",
"eXwXwXwXiXpX+X:         0 b m b b m H t.a.y.a.a.a.t.t.t.a.a.a.a.t.a.a.a.a.t.t.t.a.a.a.a.t.t.t.t.a.I u.B         -  XpXpXtXtXwXwX",
"tXtXtXtXeXeXOX:         0 b m b b m H t.a.y.a.a.a.a.a.t.a.a.t.a.t.t.a.a.a.a.a.a.a.a.a.a.a.a.a.a.p.I u.B         - .XeXeXwXeXtXtX",
"tXpXpXpXwX4X.X:         0 b m b b m H t.a.y.a.a.a.a.a.a.a.a.t.t.t.t.a.a.a.a.a.a.a.a.a.a.a.a.a.a.p.I u.B         : .XwX4X4XwXpXpX",
"eXtXiXtXeXeX.X:         0 b m v b m H t.a.t.a.a.a.a.a.a.t.a.t.t.t.a.a.a.a.a.a.a.a.a.a.a.a.a.a.a.a.p.u.B         - .XeXeXwXeXtXtX",
"eXwX7XwXtXpX+X:         0 b m b b m H t.a.t.a.a.a.a.a.a.t.a.t.t.t.a.a.a.a.a.a.a.a.a.a.a.a.a.a.a.p.p.u.B         - .XpXpXpXtXeXwX",
"eX4X4X4XpXpX+X:         0 b m b b m H t.a.t.a.a.t.t.a.t.a.a.a.a.a.a.a.a.a.a.t.t.a.t.a.a.a.t.t.t.a.p.u.B         - .XpXpXpXpX7X4X",
"eXwXeXwXpXtX+X:         0 z m b b m H t.a.t.a.t.t.t.t.t.a.a.a.a.a.a.a.a.a.t.t.t.t.t.a.a.a.t.t.t.a.p.u.B         -  XpXtXtXpXwXwX",
"tXpXpXpXwXwX.X:         0 b m b b M J p.s.a.y.a.a.a.a.a.a.a.a.a.a.t.a.a.a.a.a.a.a.d.t.a.s.p.a.a.s.y.u.B         - .XwXwX4XwXpXpX",
"tXpXpXpXwXwX.X:         0 b m b z c G y.y.y.y.I p.p.p.p.p.p.p.p.t.t.p.p.p.p.p.p.L a.t.t.a.p.a.y.f.P a.V         - .XwXwX4XeXpXpX",
"eXtXtXeXeXeXOX:         0 b m b n c G y.a.d.a.H Z Z Z Z Z Z Z Z Z Z Z Z Z Z Z Z D p.t.y.L L p.t.f.P a.V         - .XtXeXeXtXeXtX",
"eX4X4X4XpXpX+X:         0 b m b b c G t.p.a.a.J b b b b b b b b b b b b b b b b G f.s.s.a.p.s.a.p.L a.V         - .XpXpXpXpXwX4X",
"eX4X4X4XiXpX+X:         0 b m b b M J a.a.a.a.D z z z z z z z z z z z z z z z z S f.s.u.t.t.a.t.u.i.d.B         - .XpXpXpXpXwX4X",
"eXtXtXeXeXeXOX:         0 b m b z M G a.f.I I S b b b b b b b b b b b b b b b b S I a.a.a.f.a.a.p.L p.V         - .XaXeXeXtXeXtX",
"tXpXpXpXwXwX.X:         0 b m b z b C A F A C V 8 8 8 8 8 8 8 8 8 8 8 8 8 8 8 8 x C A A A A A A F F F r         - .XwXwX4XeXpXpX",
"tXpXpXpXwXwX.X:         0 b m b b b z z b b l e                                 e v b b b b b z b l c w         - .XwXwX4XwXpXpX",
"wXtX4XwXpXpX+X:         q b m b b b b b b n v e                         X       q e v b b b b b b b b q o       -  XpXpXtXtXwXeX",
"eX5X4XwXpXtX+X:         0 e v v b b b b b b b e   X X     X                   X e v b z b b b m v v l 0 o       - .XpXpXpXpX4X4X",
"tX4XwXwXtXpX+X-         = 0 q 0 q q q q q q q 9           W X.} } } W X         = q q q q q q q 0 0 q =         - .XpXpXpXpX4XwX",
"tXpXtXtXwXtXOX:           o o o                 X       X b.pXpXpXtXv.O                           o o           : .XeXtXwXeXpXtX",
"tXpXpXpXwXwX.X-                                       X   b.eXtXpXpX XX                                         - .X4XwX4XwXpXpX",
"tXeXtXtXeXeXOX-                                           b.tXtXpXpXv.X                                         O .XeXwXeXeXtXtX",
"eXwXeXwXtXpX5X} Q ~ ~ ! ! ! ! ! Q Q Q ! ! ) ! ~ ~ Q ~ ! ] .XpXwXwXwX.X} ! ] ] Q Q Q ! ) ( ( ! ~ ~ Q ! ! ' ' ! ~ [ OXpXtXpXeXwXeX",
"wXwX4XwXpXpXpXpX7XwX9XeXpXpXpXpXwX9XwXtXpXpXpXeX4X4XwXtXpXpXtXwXwX4XeXtXpXpXtXwX4X4XtXpXpXpXtX9X9XwXpXpXpXpXeX4X4XeXpXpXpXtXwX4X"
};
