/* XPM */
static char *_7d34df715f64ef392579bde85e048b6Wd082P7Fx8aD8UaR[] = {
/* columns rows colors chars-per-pixel */
"64 64 166 2 ",
"   c #0E0E0A",
".  c #0D0C07",
"X  c #100F0D",
"o  c #12120E",
"O  c #151512",
"+  c #181714",
"@  c #1A1916",
"#  c #171918",
"$  c #1D1D1B",
"%  c #171814",
"&  c #201F1C",
"*  c #1E201E",
"=  c #21211E",
"-  c #1D1F21",
";  c #211F20",
":  c #1E2222",
">  c #242423",
",  c #282724",
"<  c #262825",
"1  c #292926",
"2  c #242728",
"3  c #26292A",
"4  c #2C2C2B",
"5  c #302F2C",
"6  c #2E302E",
"7  c #31312E",
"8  c #2C2E31",
"9  c #2E3131",
"0  c #333433",
"q  c #363835",
"w  c #3A3936",
"e  c #353739",
"r  c #36393B",
"t  c #3B3C3B",
"y  c #383734",
"u  c #403F3C",
"i  c #3E403E",
"p  c #41413E",
"a  c #3B3E41",
"s  c #3E4142",
"d  c #434443",
"f  c #464846",
"g  c #494946",
"h  c #424649",
"j  c #464A4B",
"k  c #4C4D4B",
"l  c #484742",
"z  c #504F4B",
"x  c #4E504E",
"c  c #52514E",
"v  c #4B4E51",
"b  c #4F5253",
"n  c #4F5458",
"m  c #545453",
"M  c #565857",
"N  c #5A5A56",
"B  c #53565A",
"V  c #56595B",
"C  c #5B5C5B",
"Z  c #585755",
"A  c #615F5B",
"S  c #5E605E",
"D  c #62625E",
"F  c #575B60",
"G  c #5B5E61",
"H  c #5E6162",
"J  c #5C6069",
"K  c #646563",
"L  c #666866",
"P  c #696A66",
"I  c #636669",
"U  c #65696A",
"Y  c #6C6D6B",
"T  c #686763",
"R  c #706F6B",
"E  c #6E706D",
"W  c #72726E",
"Q  c #79766F",
"!  c #6C6E71",
"~  c #6E7172",
"^  c #6F7478",
"/  c #747573",
"(  c #787774",
")  c #767876",
"_  c #7A7A76",
"`  c #747778",
"'  c #76797A",
"]  c #7C7D7B",
"[  c #807F7C",
"{  c #7E807D",
"}  c #82827E",
"|  c #88857E",
" . c #7C7E81",
".. c #7E8182",
"X. c #7E8688",
"o. c #848583",
"O. c #898783",
"+. c #868885",
"@. c #8A8A86",
"#. c #858789",
"$. c #868A8A",
"%. c #8B8D8B",
"&. c #908F8A",
"*. c #928F86",
"=. c #8E908D",
"-. c #92928D",
";. c #9B988E",
":. c #8C8E91",
">. c #8E9292",
",. c #939593",
"<. c #989792",
"1. c #969896",
"2. c #9A9A96",
"3. c #949699",
"4. c #96999A",
"5. c #9B9C9B",
"6. c #A09D94",
"7. c #A09F9B",
"8. c #9EA09E",
"9. c #A2A29D",
"0. c #AAA79D",
"q. c #9C9FA1",
"w. c #9EA1A2",
"e. c #A3A5A4",
"r. c #A6A8A6",
"t. c #AAAAA5",
"y. c #A3A6A9",
"u. c #A6A9AA",
"i. c #ABADAB",
"p. c #B0ADA5",
"a. c #AEB0AE",
"s. c #B2B1AD",
"d. c #B9B5AB",
"f. c #ADAEB1",
"g. c #AEB1B1",
"h. c #B1B2B2",
"j. c #B3B4B3",
"k. c #B8B7B3",
"l. c #B6B8B5",
"z. c #BABAB5",
"x. c #B4B7B9",
"c. c #B6BABA",
"v. c #BBBDBB",
"b. c #C1BEBA",
"n. c #BEC0BF",
"m. c #C2C2BD",
"M. c #C3C0B7",
"N. c #BBBFC1",
"B. c #BFC1C1",
"V. c #C3C4C3",
"C. c #C6C8C6",
"Z. c #C9CAC5",
"A. c #C5C9CA",
"S. c #CBCDCC",
"D. c #C1C5C8",
"F. c #CED3CF",
"G. c #D0D2CF",
"H. c #CDCFD0",
"J. c #CED1D1",
"K. c #D3D4D4",
"L. c #D8D8D6",
"P. c #DBDCDA",
"I. c #D5D9DA",
"U. c #DEDFE1",
"Y. c #E2E4E2",
"T. c #E8EAE9",
/* pixels */
"/ Y / ,.a.V.v.h.r.5.3.:.>.4.w.5.u.V.U.c.L r k ' ,.o.] W E W W ] o.@.@./ m P / ] } =.2.4.r.c.j.v 3 G B J q.v.z.t.w.o.P Y o.2.r.u.",
">.e.r.a.i.i.u.u.e.q.,.$.:.w.u.u.e.g.K.V.' q k ..8.%.] W W / / { %.%.@./ N R / _ %.,.4.w.r.g.h.d 9 V V ~ u.j.j.s.i.,.' / ] ,.u.h.",
"$.e.4.4.1.1.8.9.5.w.4.4.>.q.w.w.5.f.H.n.' 0 M $.5.-.} W W _ ( _ ] @.o./ P ' ' ] %.w.e.i.e.r.i.t a G I ..g.g.a.s.u.5.%.' ' %.e.i.",
"U ,.%.%.$.%.,.5.,.3.3.5.4.4.3.,.3.u.B.l.Y 4 M ,.9.-.] W / _ _ ] o.@.] W / $.$.>.4.u.f.c.g.i.2.q 8 G ` ..8.5.e.i.j.i.5.o.] =.8.8.",
"K 2.2.,.%.@.,.2.8.>.:.:.,.:.=.%.{ %.e.c./ 3 g %.t.-.] ] o.} } @.-.@.] _ } $...o.,.>.,.e.h.h.o.0 e V Y _ ,.2.e.y.i.g.e.$.` / L k ",
"U 3.3.=.%.%.,.,.5.1.3.$.#.o.%.,.%.$.>.u.L > y / <.-.| ] ] } @.&.@.} W Y Y Y / o.o... .] >.u.Y 1 - 2 4 i C U ! ` o.#.` M v K  .o.",
"K ,.8.,.$.$.o.o.o.$.,.:.o.o.%.2.5.,.,.5.C = 1 k } @.[ W / | <.2.<.-.%.o.W D D T ] { o.] +.r.L > O * > 0 d C / ....$.,.,.,.e.N.H.",
"~ 1.5.>.o.+.{ ] ] ] o.>.#...o.%.e.>.o.' f $ t L _ _ ] &.7.7.9.e.9.2.5.7.&.o.@.} W Y o.1.e.l.P 3 : 0 0 t m :.r.r.i.y.i.h.h.f.h.j.",
"L 2.2.%.o.o.] '  . .` ' ..' ] ] +.%.%.%.f 0 x $.<.2.9.d.z.k.a.t.e.0.9.5.,.-.,.2.-.C L %.e.h.P 1 3 a s r f ` >.4.w.q.w.y.y.u.g.i.",
"/ $.%.%.o.o.o. ...$...` ` ' ' ` ] 1.i.w.k 0 C =.2.9.p.d.M.m.b.z.s.e.9.e.9.2.2.t.k.e.K m L o./ 0 9 k m f s H { %.4.4.5.w.y.e.r.r.",
"N / } } } o.o.o.$.=.$.' / ] _ / @.e.l.e.x t P } <.6.0.t.d.m.m.z.v.a.e.9.2.-.,.5.s.a.Y c m K Y 4 4 v m t 0 C ..o.,.,.5.5.5.5.,.,.",
"t C Y / } %.%.,.%.$.$.] / ' ] +.2.t.u.,.p t R ] <.6.t.d.z.m.b.k.2./ g 5 4 7 7 1 p c c d k z Z , 3 j M d 4 k ~ ] %.5.8.3.2.5.,.%.",
"g d m D P / ] / ] _ ] W L P / o.2.1.@.} y 6 g g c A Q @.| P k t 4 = @ + O o o O O + & $ 7 7 7 , 9 t k x r y p k C Y E L P ~ E Y ",
"q , , > , 1 4 > > > 1 1 1 7 y t N C c c = @ @ o o   o @ o . O 1 y u p d p d p t y p k Y _ ] K = 4 3 3 0 1 = @ + @ $ $ # # $ = , ",
"0 $ @ o @ @ @ @ @ O O + o o @ + 1 y 7 > o . o $ = + O O X $ m %.s.V.S.V.k.k.k.s.9.5.,.-.%.u.c.d # $ # # O % % % O O % % O o o O ",
"e./ R _ } o.%.%.o.' T c 7 @ = > 4 p k l D Y [ @.| ' W C t q P r.e.t.s.v.V.m.z.k.e.-.%.+.o.' u.M 0 t d g c C A D D K P Y P P P D ",
"9.s.V.v.Z.m.m.v.k.v.m.s.D c ] 1.9.t.d.d.m.Z.m.v.b.K.L.v.S s m o.-.%.@.+.%.2.e.r.2.=.o.o.o.' 4.V q G w.r.i.c.l.l.a.j.S.V.C.K.J.A.",
"m Y -.,.,.1.5.1.%.5.z.m.o.@.i.s.s.z.d.p.0.6.0.8.9.t.L.Y./ t C 1.,.=.=.$.o.@.,.8.,.%.o.o.o.>.e.k 0 G ,.5.,.$.>.,.8.i.h.v.i.v.A.B.",
"d k P ] o.@.=.@.@.@.2.z.@.] o.o.%.2.2.6.;.*.6.9.7.@.v.Y.' q x o.8.1.,.o.] $.2.2.-.%.%.@.o.,.2.q s h k K ^ ~ ' ~ ~ >.i.i.g.v.v.v.",
"m m C Y _ O.@.@.o.] | 9.@.K N K R ] -.;.6.6.2.9.2.-.z.V.E 0 f { u.5.%.o.] o.%.} _ W ] @.o.%.o.1 8 h I ,.i.e.i.y.` K =.r.i.i.g.r.",
"P / P K P } %.%.$.%.,.9.o.m l l m P | -.6.0.9.0.1.1.l.i.H 4 q Y j.e.%.o.] } @.O./ D S Y W / L > h B ' i.D.B.j.r.5.~ C ,.i.r.r.r.",
"} $.W K T ] -.1.5.1.i.k._ g g p D ] } -.-.2.0.0.2.=.r.1.m 1 4 k -.2.-.] Y Y / P P m p y 7 i a 8 a b  .f.D.A.x.u.w.4.L K 1.i.w.w.",
"@.%._ / W ] =.,.,.] %.e.L d l d D R T Y P W } @.&.O.9.o.l > $ > y m N k d r y 4 0 q 4 * $ > % : s j ! 4.g.x.y.w.2.2.$.S / 5.i.5.",
"/ ] / E D C K m t 3 0 K d q q t q 7 1 , = 1 4 w p c W m q 4 = + @ > > q g g C / ` $.%.1.8.o.h a j B ! 4.y.w.>.:.' / C m b Y 4.e.",
"i.N 7 1 = $ > @ @ = 1 k k p 4 = @ $ $ 1 7 7 y 5 y m _ o.o.` E 6 c P ` >.u.f.f.B.C.A.C.A.G.K.' s G V  .x.c.N.N.A.f.y.q.4.' b ' q.",
"J.L K ] ,.5.=.o.} @.&.i.V.G.t.D 4 m ] t.v.z.k.k.k.k.m.K.Y.P.h.l H :.>.w.g.x.h.l.h.i.i.e.,.e.{ 4 n j n ' .. .] X.$.$.w.l.v.%.P 3.",
"g.P ,.i.v.Z.m.z.s.e.%.-.z.T.P./ q K _ } -.1.9.e.5.1.1.e.m.P.v.r C 4.3.y.c.v.j.g.5.,.,.O.@.,.H 4 F F G  .X. .$.$.o./ Y ' $.] C $.",
"o.L o.,.5.t.k.t.t.p.t.9.t.m.Z.K > m Y / @.5.9.5.5.2.-.@.%.t.5.0 I u.3.4.e.w.1.,.1.@.%.-.<.5.c 4 V I ! >.%.$.5.4.%.o.' o.%.$.M  .",
"S k g C K P / _ ] ] ] } %.1.i.k - d C Y @.5.9.t.e.5.,.,.=.$.` 3 F g.u.5.4.=.@.] [ O._ o.1.5.N 0 V ~ Y o.$.,.5.5.,.%.+.] $.$.d ` ",
"d d l k k k g N D P W W / ' ,.k $ p K _ @.2.5.8.e.5.,.,.<.o.N - M 3.4.$.+.@.-.-.%.O.] _ 1.2.m 4 V ` H U ] ,.%.2.,.=.$.' ' ' d f ",
"t t k k k m g k c c N N D P o.k @ p / o.%.8.e.1.3.4.=.@.5.,.m > v ! o.{ } { [ O.o.A / ] @.2.M 8 V ~ ` U ' @.o.@.%.1.5.,.#...U 4 ",
"i r d u u p p t t t d d g c ' m $ t / -.,.e.r.w.3.5.-.-.j.r.m > t C o.' } } } O.} _ _ @.,.,.m q n I ,.] ' o.o.{ o.-.8.,.,.>.' t ",
"k k y 4 7 , 0 t 7 1 w g c m / C > g ] >.1.5.r.e.5.5.,.%.c.v.L 4 f m E ` ( ] { _ o.@.] } o.,.P 0 m L o.] / / / ' ] >.1.,.,.1.4.H ",
"P p d 4 + & , > 4 + $ 7 p l r d 1 m $.w.u.e.q.u.e.r.e.2.c.K.=.r f m Y W W W _ } o.{ ( W / +.Y t d m ' ] ' Y L Y ` %.,.5.8.i.j.%.",
"z.k q 4 > 4 7 y i p c m C L p 0 0 N 4.e.u.u.r.g.j.e.e.e.v.L.i.l l g m N D T W W K K P m c K m 1 q t N K K k t 0 m Y ' ,.2.>.,.5.",
"k.5.2.,.,.8.s.l.c.V.S.C.S.P.m./ 4 k 5.j.u.i.g.i.h.i.i.e.h.A.j.l 4 4 0 1 1 7 p y y 4 y y 7 4 1 4 y y p p l d y y > , 0 6 1 1 1 r ",
"%.j.c.e.i.v.C.n.i.i.a.h.m.S.P.2.3 1 K ` K M m m N k k m m m C 0 > $ , > o O , & > @ $ 1 t m L =.i.s.i.i.t.e.5.e.m % t d 0 l N Z ",
"C ] 5.%.$.%.%.%.o.%.1.e.i.i.l.e.r > 9 r l k k m x m C K / o.4.>.] M s b C P } } @.1.1.@.2.l.s.v.Z.v.e.5.,.-.,.e.$.4 ` >.>.q.h.z.",
"m H { / / ] ] ' / o.%.8.j.k.i.e.f r f L ,.i.j.j.g.r.h.v.L.P.K.P.V.$.b ` y.l.a.t.e.t.e.@.1.i.i.j.9.-.} _ o.} @.,.} q ! ' ..%.e.u.",
"m m Y Y Y / ' / ` { o.1.i.t.s.u.k r M o.5.5.e.e.q.3.5.q.c.P.K.U.Y.e.f C :.5.%.=.o.o.@.D Y o.@.+.1.-.@._ %.O.,.2.' 4 B I U ` 1.1.",
"d j M U ! Y Y / ` / { =.r.h.n.r.d i ~ ..4.3.1.,.5.,.>.,.w.c.H.Y.U.e.q r H E E P L K L c Y / ' Y ( 5.5.] @.,.%.9./ 1 g M I ..,.%.",
"r r d m K U Y / ` ] o.,.i.j.V.a.q d ` ..>.>.=.>.%.$.%.$.#.#.y.P.T.,.3 M 3.c.a.e.5.$.o._ ( K P ' / } -.,.%.,.2.1.Y = s j h U ] ] ",
"t 9 0 d C U Y Y / ] o.,.i.l.V.u.r C #.$.$.>.%.=.%.%.o...] Y ..c.I.>.3 d ~ v.F.V.z.e.5.-.o.( / ] ' o.K N ` %.1.r./ $ r s e H ..$.",
"r 0 0 t k L / ` ( _ ] $.e.j.n.,.3 C >.>.,.q.5.4.1.>.o.` ` ~ ` ,.J.$.3 r t / i.h.e.@.] } o.o.o.o.o.] W K C { 5.9./ # t v v ` $.%.",
"d k b k f m Y } } _ _ o.2.i.v...2 G 4.q.e.r.r.e.e.5.1.o.] ..>.5.A. .2 d s m o.o.o._ _ ] } @.$.%.-.@.] W E W L %.' 3 f V U ..$.o.",
"C Y / P C m D / ] ] } -.e.k.v./ : m ,.w.u.u.f.i.e.e.i.e.>.,.w.y.V...8 t d m o./ / ' } ] _ } o.@.@./ / W Y K d L W q v B ~ ....' ",
"/ o.o._ / E P Y ( } o.,.h.v.j.K # q K @.1.9.e.e.e.5.r.r.5.e.y.q.g.` 0 q q t L Y / / [ } W m t p g g C P N k 7 t d 6 d v ^ #.' ` ",
"] ,.$.W / ] / Y _ o.] %.k.v.e.b : % $ y p m N C C v b m m H G n / v 2 3 > ; , 5 y t u 4 > @ O @ $ + = y 4 1 # > 1 4 a h ^ 3.$.o.",
"@.-.o._ W ( Y D c m C W e.z.9.g r s q 1 $ , > 2 2 > 3 2 r r q i j j 3 $ # % O O o O   % # * $ $ > # $ $ $ $ , > > 3 t q U w.,.$.",
"2.' / Y Y Y P p 1 4 w c o.k.,.m U %.,.2.2.2.q.3.,.4.2.#.,.e.e.h.B.c.S C Y ' ' / o.o.M l / ,.5.5.,.,.%.$.,.2.e.i.H 9 a r H 5.>.:.",
"t.m L Z k m g p $ $ > 5 C 9._ k ' 5.r.c.A.A.K.A.S.c.h.e.3.>.,.V.T.L.L o.i.h.5.e.g.C.] s $.C.S.c.u.9.,.,.9.5.i.C.,.9 t t M 3.>.:.",
"K.m 1 > > , & > @     o = k y r U %.e.a.i.4.q.4.e.#./ ~ o.4.,.g.K.C.L ~ e.w./ L ' >.V r ' w.1.o.Y Y Y Y P A _ e.4.4 t s k :.4.$.",
"T.Y 5 1 1 > > , 0 r d d c P l q Y #.w.e.e.,.>.>.%.$...~ ' >.,.i.B.j.x d ` ,.%.o.K ` h 9 M o.+.Y Y Y P L K P ] ,.%.4 r d t ` 3.$.",
"v.,.i.j.i.e.i.i.s.V.Z.Z.L.K...8 m ' 4.2.,.>.4.e.w.5.4.>.>.>.%.e.j.c.x r S $.e.5.4.' 0 : 4 c Y W / Y L Y / ] | @.%.9 0 t 0 m o.#.",
"%.l.K.Y.P.n.S.B.C.m.k.Z.P.K.o.0 f K ' ,.5.,.$.o.4.e.w.4.w.4.>.,.h.K./ , 0 P w.5.r.,.g = > t D D K W / } o.' ( O.,.q 1 y 1 0 m P ",
"` e.e.,.,.%.o.5.5.%./ } e.V...8 m V m ' ,.>.4.5.3.e.r.e.i.5.4.,.e.S.5.1 4 k o.4.4.4.N , > 1 d c W @.$.%.%.] K P 5.p 4 4 > $ 4 l ",
"Y >.%.` Y Y Y / @.-.-.%.2.h.] , r G C f M ` :.,.w.e.r.i.i.y.q.4.2.l.v.7 4 l ' >.>.$.L > = > = 1 g ] %.5.1.x 3 y / t 1 4 > $ = 4 ",
"d S Y S D P E P ] %.-.=.2.k.] > r j ' Y l 0 P 5.e.e.e.g.j.r.w.5.5.z.v.y = y M K N C d $ @ $ % $ & t P _ m > $ $ q 1 1 > > > > 1 ",
"4 l _ / ] ] @.o.} =.@.o.,.z.%.4 0 d U ` Y r d o.u.h.i.h.x.j.f.e.5.s.a.w $ > 0 i g N C C K L K D N c g 0 t m / ] o.o.o...o.%.%.5.",
"p g _ / } } @.%.@.-.o.{ ,.V.1.1 4 0 4 0 d d r L ,.e.u.h.v.v.c.u.8.9.-.p N ] %.5.7.t.z.v.Z.S.P.P.Y.P.2.r m o.q.V.H.K.J.S.K.I.J.S.",
"d m _ / _ } } %.-.1.%.| ,.V.5.0 q k g r d l 4 r l K o.u.c.a.e.4.2.r.O.t W 5.e.t.k.s.z.t.9.e.r.u.s.L.i.a j C G  .%.,.5.5.y.j.g.4.",
"y N o.} { @.} o.-.9.7.-.,.v.e.t l ~ $.] o. .Y Y K m m L o.,.%.o.2.a.] r K _ _ O.1.2.5.-.} %.o.@.<.c.2.0 v B V $. .] ..o...>.4...",
"N P =.-.%.1.,.@.@.9.t.e.5.m.e.t s G #.:. . .#.o.#.' E S S Y / o.i.i.D 0 N P E ] &.%.@.@.( } ] } ] 9.o.3 v v V 3.#.....#...o.%.' ",
"D K %.,.@.-.5.,.-.5.9.7.5.m.e.r t K ~ ....$. .o.] ~ / / E Y Y +.5.9.m 4 m P Y W ] { } @.| ] _ W W -.] 3 j j B X.:.:.o.` U ` ] U "
};
